<?xml version="1.0" standalone="no"?>
<!DOCTYPE svg PUBLIC "-//W3C//DTD SVG 1.1//EN" "http://www.w3.org/Graphics/SVG/1.1/DTD/svg11.dtd" >
<svg xmlns="http://www.w3.org/2000/svg">
<metadata>
This is a custom SVG webfont generated by Font Squirrel.
</metadata>
<defs>
<font id="webfontEm1nZ0Gw" horiz-adv-x="1406" >
<font-face units-per-em="2048" ascent="1638" descent="-410" />
<missing-glyph horiz-adv-x="681" />
<glyph unicode=" "  horiz-adv-x="681" />
<glyph unicode="&#x09;" horiz-adv-x="681" />
<glyph unicode="&#xa0;" horiz-adv-x="681" />
<glyph unicode="!" horiz-adv-x="339" d="M80 51q0 35 26 66q25 27 64 26.5t65.5 -27t26.5 -65.5q0 -41 -26.5 -65.5t-65.5 -24.5q-37 0 -63.5 26.5t-26.5 63.5zM84 1294q0 156 86 156q80 0 80 -139q0 -16 -4 -82t-4 -74q-14 -119 -21 -276q-4 -31 -8 -88q-2 -31 -6 -74t-4 -58q-2 -43 -6 -75q-4 -47 -8.5 -93.5 t-6.5 -86t-4 -56.5h-12q-6 33 -12 119q-2 33 -6.5 73t-4.5 48q0 6 -2 32.5t-8 92t-10 125.5q-14 184 -29 321q-2 0 -6 51q-4 35 -4 84z" />
<glyph unicode="&#x22;" horiz-adv-x="573" d="M41 1432q0 43 26.5 63.5t63.5 20.5q33 0 66 -23q27 -18 47 -63q18 -41 18 -91q0 -94 -53 -174q-55 -84 -146 -116v14q61 41 90 104.5t29 114.5q0 59 -20 59h-51q-33 6 -51.5 31t-18.5 60zM317 1432q0 43 27 63.5t64 20.5q59 0 96 -49.5t37 -127.5q0 -94 -54 -174 q-55 -84 -145 -116v14q66 45 90 104q27 61 27 115q0 59 -21 59h-30h-21q-33 6 -51.5 31t-18.5 60z" />
<glyph unicode="#" horiz-adv-x="1024" d="M41 393l12 94h211l51 373h-204l12 94h205l59 424h96l-59 -424h256l57 424h97l-58 -424h209l-12 -94h-211l-49 -373h211l-13 -94h-213l-57 -426h-96l57 426h-254l-59 -426h-96l59 426h-211zM360 487h256l50 373h-254z" />
<glyph unicode="$" horiz-adv-x="1107" d="M106 1139q0 106 74 225q72 117 324 139v103h88v-103q100 -14 225 -45q31 -8 60 -8q31 0 41 35h14v-357h-14q-57 283 -326 318v-615q156 -84 235 -139q90 -63 144 -141q53 -80 53 -191q0 -37 -10 -94q-8 -49 -53.5 -116.5t-131.5 -114.5q-84 -47 -237 -60v-98h-88v98 q-108 0 -172 19q-119 33 -146 33q-47 0 -47 -37h-14v368h14q8 -82 39 -155q27 -68 107 -121q78 -53 219 -59v684q-160 84 -242 147q-90 70 -121 133q-35 70 -35 152zM231 1186q0 -94 64 -158q65 -65 209 -147v569q-90 -12 -151.5 -55t-92.5 -99q-29 -51 -29 -110zM592 23 q145 2 227 83q80 80 80 185q0 125 -84 209q-88 88 -223 159v-636z" />
<glyph unicode="%" horiz-adv-x="1771" d="M41 1112q0 127 57 223q53 88 142 135q84 45 170 46q90 0 174 -50q86 -51 137 -141q53 -94 53 -215q0 -117 -51 -207t-135 -143q-82 -51 -178 -51q-88 0 -174 49q-84 49 -140 139q-55 92 -55 215zM166 1112q0 -92 31 -174q29 -80 86 -133q53 -51 124.5 -51t124.5 51 q55 52 86 135q31 84 31 170q0 89 -31 172q-33 88 -83 137q-53 51 -129 51q-117 0 -179 -118q-61 -120 -61 -240zM432 -10l852 1526h70l-852 -1526h-70zM995 381q0 131 56 223q53 88 143 137q84 45 170 45q88 0 174 -49q84 -49 137 -141q53 -94 54 -215q0 -117 -52 -207 q-51 -88 -137 -143q-82 -51 -178 -51q-86 0 -172 49q-88 51 -141.5 139t-53.5 213zM1120 383q0 -92 31 -174t88 -133t123 -51q72 0 125 51q57 53 86 135q31 86 31 170q0 74 -15 131q-14 59 -47 115q-29 49 -78 81.5t-104 32.5q-78 0 -133 -59q-55 -57 -80 -143 q-27 -90 -27 -156z" />
<glyph unicode="&#x26;" horiz-adv-x="1492" d="M63 344q0 143 87 254q84 106 212 193l-14 14q-88 96 -143 188q-51 84 -51 178q0 90 49 170q47 76 135 127q82 47 192 48q137 0 226 -78q86 -77 86 -191q0 -127 -99 -225q-96 -96 -237 -184q63 -72 160 -170l145 -152l150 -149q55 88 114 233q61 151 62 246q0 63 -33 82 q-33 16 -82 20v17h418v-17q-72 -2 -119 -30.5t-82 -83.5q-37 -59 -74 -156q-45 -117 -73 -176q-20 -41 -56 -103q-25 -41 -43 -65q6 -6 74 -68l117 -106q106 -92 170 -117q59 -23 121 -27v-16h-312q-184 147 -256 217q-63 -80 -174 -162q-117 -86 -274 -86q-82 0 -156 29 q-70 27 -127 84q-59 59 -84 121q-29 69 -29 141zM182 428q0 -96 54 -178q51 -80 137 -125q84 -45 172 -45q78 0 139 26q57 25 107 64q39 31 86 78l-132 127l-96 98q-23 23 -106 113l-154 170q-207 -140 -207 -328zM266 1257q0 -59 33 -127q37 -78 82 -139q45 -63 98 -119 q104 66 172 144q66 76 66 182q0 63 -31 124.5t-86 96.5q-58 37 -129 37q-98 0 -151.5 -59.5t-53.5 -139.5z" />
<glyph unicode="'" horiz-adv-x="296" d="M39 1432q0 43 26.5 63.5t63.5 20.5q33 0 66 -23q27 -18 47 -63q18 -41 18 -91q0 -94 -53 -174q-55 -84 -146 -116v14q61 41 90 104.5t29 114.5q0 59 -20 59h-51q-33 6 -51.5 31t-18.5 60z" />
<glyph unicode="(" horiz-adv-x="616" d="M92 647q0 246 133 475q49 82 78 117q41 51 78 88q49 49 94 84l135 105l8 -11q-123 -101 -202 -221q-78 -117 -119 -276q-39 -154 -39 -363q0 -293 88 -500q86 -203 272 -354l-8 -12q-129 86 -237 198q-114 117 -197 289q-84 174 -84 381z" />
<glyph unicode=")" horiz-adv-x="616" d="M0 -209q90 74 161.5 164t112.5 188.5t64 227.5q23 131 22 274q0 203 -40.5 362.5t-118.5 276.5q-86 129 -201 221l8 11q88 -66 168 -134q74 -63 119 -118q52 -65 98 -142q68 -113 101 -231q33 -117 32 -244q0 -299 -159 -518q-156 -213 -359 -350z" />
<glyph unicode="*" horiz-adv-x="872" d="M63 926q0 34 37 55q33 18 146 51q104 33 151 58q-6 12 0 24q-29 18 -75 33q-94 29 -154 45q-104 28 -105 86q0 25 19 47q18 20 43 21q22 0 43 -13q18 -10 72 -63q90 -92 166 -137q6 6 22 10q-18 117 -49 239q0 2 -2 11.5t-4 17.5q-4 29 -4 35q0 25 16 47.5t53 22.5 q29 0 47 -21q16 -18 17 -49q0 -39 -8 -70l-29 -102q-18 -78 -19 -131q14 -4 21 -10q55 31 154 129q82 82 120 81q16 0 43 -16q23 -14 23 -51q0 -29 -21 -47q-16 -14 -81 -35q-154 -43 -230 -80q6 -12 0 -24q88 -37 227 -78q106 -31 107 -88q0 -29 -23 -47q-22 -18 -43 -19 q-29 0 -61 27q-34 28 -104 98q-63 63 -111 90q-6 -6 -21 -10q0 -55 19 -119q31 -123 33 -129q6 -33 6 -63q0 -23 -16.5 -45.5t-51.5 -22.5q-27 0 -45 18.5t-18 51.5q0 23 10 77q0 2 2 7.5t4 15.5l4 20q12 47 15 54q18 80 20 135q-14 4 -22 10q-47 -29 -101 -80l-90 -86 q-8 -8 -41 -33q-23 -16 -45 -16q-25 0 -45.5 20.5t-20.5 47.5z" />
<glyph unicode="+" horiz-adv-x="1122" d="M20 498v112h486v482h112v-482h486v-112h-486v-498h-112v498h-486z" />
<glyph unicode="," horiz-adv-x="296" d="M39 82q0 39 29 63q31 27 65 27q29 0 62 -22q27 -18 47 -64q18 -41 18 -88q0 -102 -51 -174q-55 -78 -148 -121v12l33 29q33 29 58 82q27 57 26 119q0 55 -16 55q-4 -2 -15 -4l-16 -4q-37 0 -65 24q-27 25 -27 66z" />
<glyph unicode="-" horiz-adv-x="638" d="M55 690v82h529v-82h-529z" />
<glyph unicode="." horiz-adv-x="296" d="M57 51q0 39 24.5 65.5t65.5 26.5q35 0 66 -26q27 -25 27 -66t-27 -65q-29 -25 -65.5 -25t-63.5 26.5t-27 63.5z" />
<glyph unicode="/" horiz-adv-x="638" d="M70 0l452 1473h47l-452 -1473h-47z" />
<glyph unicode="0" horiz-adv-x="1363" d="M82 735q0 250 92 428q94 180 232 267q138 86 276 86q150 0 287 -95q141 -96 225 -272q88 -182 88 -414q0 -168 -49 -309t-133 -244q-86 -104 -195 -164q-106 -57 -223 -57q-102 0 -213 53q-106 51 -195 152t-141 246q-51 141 -51 323zM252 735q0 -168 49 -334 q49 -168 145 -272q98 -106 236 -106q115 0 213 98q100 100 158 264q59 168 59 350.5t-47 341.5q-49 166 -147 271q-100 106 -236 106q-137 0 -235.5 -116.5t-147.5 -286.5q-47 -162 -47 -316z" />
<glyph unicode="1" horiz-adv-x="616" d="M72 0v16q164 0 164 160v987q0 104 -5 119q-6 23 -32 23q-18 0 -127 -37v16q55 27 106 59q43 29 84 66q45 43 92 107h33v-1340q0 -86 39 -123q40 -37 123 -37v-16h-477z" />
<glyph unicode="2" horiz-adv-x="1150" d="M82 0q82 72 160 150q88 86 209 217q100 106 143 168q133 182 180 296q45 111 45 207q0 84 -28 154q-27 63 -76 111q-49 45 -107 65q-63 23 -125 23q-59 0 -121 -21q-63 -20 -126 -78q-55 -49 -93 -149h-30q15 80 67 166q51 84 149.5 145.5t231.5 61.5q131 0 225.5 -57.5 t143.5 -149.5t49 -197q0 -125 -61 -254q-66 -137 -156 -248q-98 -121 -203 -219l-250 -229l-33 -29h650q61 0 98 24.5t68 80.5h16l-64 -238h-962z" />
<glyph unicode="3" horiz-adv-x="1024" d="M70 135v74q88 -88 174 -129q80 -39 178 -39q138 0 209 74q72 74 86 149q16 82 16 133q0 126 -55 203q-55 78 -113 111q-16 10 -57 20q-55 12 -76 14q-49 4 -65 5h-136v53h74q174 0 266 94q84 88 84 248q0 102 -32 170q-37 76 -93 112q-63 41 -141 41q-113 0 -168 -63 q-59 -70 -94 -154h-14v267h14q12 -31 55 -31q8 0 39 6q20 4 35 4q83 18 160 19q104 0 192 -43q86 -41 146 -127q55 -80 55 -187q0 -63 -23 -133q-25 -74 -86 -133q-74 -68 -221 -105v-4q169 -12 264 -79q94 -66 131 -154q37 -86 37 -162q0 -90 -37 -170q-35 -76 -104 -135 q-70 -61 -149 -90q-88 -33 -177 -33q-129 0 -213 49q-81 49 -161 125z" />
<glyph unicode="4" horiz-adv-x="1298" d="M39 592l752 919h55v-829h399v-90h-399v-414q0 -90 47 -127q41 -33 108 -37v-14h-464v14q72 4 112 37q45 37 45 127v414h-655zM186 682h508v623h-4z" />
<glyph unicode="5" horiz-adv-x="1024" d="M68 111v73q61 -53 141 -96q72 -39 188 -39q111 0 176 47q70 51 101 123q31 74 31 156q0 100 -39 176q-43 82 -113 123q-74 43 -170 43q-63 0 -98 -10q-25 -6 -119 -41l139 807h649l-20 -111h-504l-104 -606q70 14 143 14q115 0 209 -51q96 -53 151 -141q53 -86 54 -193 q0 -111 -56 -209q-55 -96 -159 -156q-106 -59 -238 -59q-109 0 -188.5 37t-173.5 113z" />
<glyph unicode="6" horiz-adv-x="1173" d="M106 522q0 52 13 135q12 80 43 183q27 90 94 207q63 111 160 206q139 139 293 193q145 51 303 70v-35q-80 -12 -181 -45q-82 -27 -182 -95q-96 -66 -176 -176q-98 -139 -139 -278q-45 -152 -51 -326l4 -4q39 80 121 148q84 70 239 69q127 0 219 -53q98 -57 146 -146 q49 -92 49 -196q0 -88 -33 -162q-33 -76 -96 -133q-68 -61 -150 -90q-92 -33 -186 -33q-123 0 -221 47q-88 43 -154 131q-59 82 -88 180q-27 94 -27 203zM283 483q-2 -106 32 -223q35 -113 111 -182q78 -72 192.5 -72t198.5 84q82 82 82 242q0 96 -41 184q-40 86 -110 135 q-74 51 -160 51q-82 0 -168 -51t-137 -168z" />
<glyph unicode="7" horiz-adv-x="1128" d="M80 1186l45 287h948l-651 -1498h-146l603 1387h-412q-154 0 -242 -39q-84 -37 -129 -137h-16z" />
<glyph unicode="8" horiz-adv-x="1107" d="M100 301q0 94 45 170t129 137q82 59 193 113q-193 113 -252 201q-66 96 -65 200q0 94 47 185q47 92 145 149q100 59 242 60q127 0 219 -50q90 -49 137 -129q45 -78 45 -168q0 -113 -55 -192q-55 -78 -127 -123q-76 -47 -135 -72l28 -18q92 -59 125 -82t84 -74 q45 -45 76 -110q29 -59 29 -142q0 -100 -56 -192q-53 -90 -166 -148q-109 -55 -264 -55q-145 0 -241 53q-94 51 -140 131q-43 76 -43 156zM256 309q0 -139 72 -223q74 -86 221 -86q152 0 235 86q84 88 84 213q0 88 -39 156q-35 61 -100 108q-57 41 -203 125q-2 2 -4 2l-6 2 l-4 4q-63 -35 -123 -84q-53 -43 -94 -120q-39 -72 -39 -183zM289 1186q0 -72 35 -144q37 -78 159 -151l117 -70l2 -2q2 -2 8 -4l13 -6q78 43 120 82q47 43 72 106q25 61 25 152q0 156 -80 235.5t-195 79.5q-70 0 -133 -30q-61 -29 -102 -92.5t-41 -155.5z" />
<glyph unicode="9" horiz-adv-x="1150" d="M92 1098q0 88 33 162q31 72 96.5 133t149.5 92q86 31 186 31q131 0 223 -48q95 -49 154 -129q57 -78 86 -180q27 -94 27 -205q0 -43 -11 -129q-8 -76 -43 -180q-37 -113 -96 -215q-66 -113 -160 -207q-96 -96 -211 -153q-106 -53 -196 -76q-80 -20 -189 -33v35 q92 15 178 43q88 29 185 94q94 66 176 178q98 135 139 279q45 156 51 325l-4 5q-35 -74 -121 -148q-82 -70 -239 -70q-187 0 -301 117q-113 115 -113 279zM254 1145q0 -96 41 -184q40 -86 111 -136q74 -51 159 -51q80 0 170 51q80 47 135 168q2 106 -32 224 q-35 113 -111 182q-78 72 -192 71q-121 0 -201 -83.5t-80 -241.5z" />
<glyph unicode=":" horiz-adv-x="296" d="M59 51q0 39 25 65.5t66 26.5q39 0 65.5 -26.5t26.5 -65.5q0 -41 -27 -65.5t-65 -24.5q-37 0 -64 26.5t-27 63.5zM59 702q0 39 25 66t65.5 27t65.5 -27q27 -31 27 -66q0 -41 -27 -65.5t-65 -24.5q-37 0 -64 26.5t-27 63.5z" />
<glyph unicode=";" horiz-adv-x="296" d="M39 82q0 39 29 63q31 27 65 27q29 0 62 -22q27 -18 47 -64q18 -41 18 -88q0 -102 -51 -174q-55 -78 -148 -121v12l33 29q33 29 58 82q27 57 26 119q0 55 -16 55q-4 -2 -15 -4l-16 -4q-37 0 -65 24q-27 25 -27 66zM53 702q0 39 24.5 66t65.5 27q39 0 66 -27t27 -66 q0 -41 -27 -65q-29 -25 -66 -25t-63.5 26.5t-26.5 63.5z" />
<glyph unicode="&#x3c;" horiz-adv-x="1122" d="M53 471v127l1018 471v-127l-887 -407l887 -408v-127z" />
<glyph unicode="=" horiz-adv-x="1122" d="M23 289v112h1077v-112h-1077zM23 686v113h1077v-113h-1077z" />
<glyph unicode="&#x3e;" horiz-adv-x="1122" d="M53 0v127l887 408l-887 407v127l1018 -471v-127z" />
<glyph unicode="?" horiz-adv-x="616" d="M25 1210q37 92 96 166q59 72 176 72q78 0 139 -37q59 -35 94 -102q35 -66 35 -142q0 -90 -41 -167.5t-149 -223.5q-53 -70 -90 -137q-35 -63 -49 -127q-14 -59 -11 -168h-14q-6 37 -6 111q0 98 20 159q22 65 80 154q76 113 103 176q29 68 28 152q0 80 -33 131 q-35 53 -84 77.5t-96 24.5q-41 0 -100 -26q-55 -25 -86 -99zM147 51q0 39 25 65.5t66 26.5q39 0 65.5 -26.5t26.5 -65.5q0 -41 -27 -65q-29 -25 -65 -25q-39 0 -66 27q-25 24 -25 63z" />
<glyph unicode="@" horiz-adv-x="1703" d="M88 467q0 297 117 549q114 246 289 362q172 115 409 115q197 0 354 -96q152 -92 250 -279q94 -180 95 -403q0 -301 -175 -527q-150 -193 -319 -192q-82 0 -117 41t-41 127q-57 -82 -125 -125q-63 -41 -123 -41q-119 0 -202 108q-98 131 -99 340q0 170 70 328 q70 156 168 234q96 76 190 75q70 0 134 -45q68 -47 112 -139l27 156h147l-119 -670q-23 -127 -22 -156q0 -31 16 -47q18 -18 39 -18q47 0 125 69q84 74 137 203q55 132 56 283q0 176 -78 321.5t-213 225.5q-139 82 -293 82q-186 0 -342 -102.5t-250 -303.5t-94 -461 q0 -244 86 -415.5t243.5 -260t379.5 -88.5q197 0 346 82q152 84 227 219h149q-51 -123 -161.5 -231.5t-247.5 -163.5q-131 -53 -313 -53q-262 0 -441 102q-182 104 -286.5 307t-104.5 488zM553 434q0 -135 55 -213q55 -76 121 -76q59 0 129 58q72 59 121 182t49 262t-55 213 q-57 76 -135 76q-59 0 -123 -53q-66 -55 -113 -187q-49 -135 -49 -262z" />
<glyph unicode="A" d="M25 0v16q76 6 118 56q45 51 78 151l416 1268h108l441 -1262q35 -100 65.5 -143t59.5 -55q25 -10 73 -15v-16h-481v16q78 0 115 15q39 14 39 75q0 33 -19 91l-4 12l-131 391h-510l-117 -362q-25 -74 -24 -119q0 -61 31 -82q29 -20 88 -21v-16h-346zM410 653h469l-240 699 h-4z" />
<glyph unicode="B" horiz-adv-x="1173" d="M72 0v16h20q55 0 96 41t41 121v1112q0 80 -36.5 123t-102.5 43h-18v17h481q96 0 174 -27q86 -29 137 -76q51 -45 84 -110q31 -61 31 -134q0 -135 -86 -217q-82 -80 -231 -121v-4q74 -6 126 -20q66 -16 111 -39q47 -23 92 -66q35 -33 66 -79q25 -37 41 -93q14 -45 14 -104 q0 -115 -59 -199q-55 -78 -135 -125q-109 -59 -295 -59h-551zM381 221q0 -47 10 -88q8 -35 57.5 -61.5t145.5 -26.5q203 0 289 135q59 94 59 209q0 88 -29 152q-33 72 -82 114q-51 45 -129 70q-84 27 -170 27h-151v-531zM381 797h96q119 0 168 24q33 16 66 43q39 33 67 88 q31 61 31 146q0 70 -21 125q-23 61 -61 106q-43 49 -94 72q-59 27 -121 26q-53 0 -131 -22v-608z" />
<glyph unicode="C" horiz-adv-x="1472" d="M109 717q0 217 106 399q109 188 287 293q180 106 393 107q135 0 279 -39l104 -29q31 -6 51 -6q39 0 51 12q16 16 21 41h16l-14 -352h-17q-18 109 -102 182q-90 80 -188 111q-111 35 -201 34q-125 0 -237.5 -53t-192.5 -151q-82 -100 -127 -233.5t-45 -297.5 q0 -154 43 -286q43 -131 127 -232q82 -98 194 -147q111 -49 244 -50q113 0 246 46q137 47 242 151v-57q-125 -98 -244 -152q-106 -47 -275 -47q-176 0 -317 64q-145 66 -244 172q-96 106 -149 241q-51 134 -51 279z" />
<glyph unicode="D" horiz-adv-x="1597" d="M76 0v16h20q70 0 103 52q35 53 34 110v1112q0 57 -18 94t-49 56q-27 16 -70 16h-20v17h567q123 0 219 -21q109 -23 180 -53q70 -29 138 -76q61 -41 98 -82q70 -70 119 -156t73 -180q25 -95 25 -196q0 -100 -25 -193q-27 -100 -67.5 -167.5t-108.5 -139.5 q-55 -57 -145 -115q-70 -43 -164 -67q-100 -27 -248 -27h-661zM385 236q0 -88 26.5 -127t86 -51.5t170.5 -12.5q160 0 270 31q104 29 213 141q76 78 123 199q45 115 45 282q0 131 -37 260q-37 127 -113 228q-86 113 -219 178q-129 63 -321 63q-96 0 -244 -24v-1167z" />
<glyph unicode="E" horiz-adv-x="1042" d="M72 0v16h20q46 0 92 37q45 37 45 125v1110q0 70 -30.5 119t-106.5 49h-20v17h878v-232h-14q0 186 -248 186h-307v-669h270q74 0 144 26q61 25 71 119h15v-334h-15q-8 55 -35 88q-23 29 -49 39.5t-43 10.5q-37 6 -75 6h-283v-523q0 -57 22 -102q22 -43 105 -43h219 q74 0 129 23q49 20 82 63q23 31 49 100h14l-51 -231h-878z" />
<glyph unicode="F" horiz-adv-x="1042" d="M70 0v16h20q61 0 100 45t39 117v1114q0 95 -43 129q-45 35 -96 35h-20v17h884v-224h-16q-6 66 -51 123q-43 55 -152 55h-354v-667h330q96 0 129 39q35 41 43 106h16v-334h-16q-6 66 -41 103q-37 41 -131 41h-330v-537q0 -74 43 -117q45 -45 100 -45h21v-16h-475z" />
<glyph unicode="G" horiz-adv-x="1597" d="M109 733q0 150 55 291t159.5 251.5t256.5 176.5q147 63 335 64q80 0 140 -9q37 -4 202 -39q53 -12 76 -12q51 0 72 49h16v-338h-16q-31 143 -170 224q-137 80 -315 79q-88 0 -197 -28q-100 -27 -207 -105q-100 -74 -165.5 -217t-65.5 -358q0 -340 161 -549 q160 -207 515 -207q141 0 206.5 18.5t83.5 53.5q18 33 19 88v270q0 98 -41 127q-45 33 -125 41v17h479v-17q-63 -6 -102 -29q-35 -20 -47 -55q-12 -33 -13 -90v-410q-225 -59 -454 -59q-129 0 -240 21q-119 23 -246 88q-123 66 -225 204q-147 203 -147 459z" />
<glyph unicode="H" horiz-adv-x="1597" d="M70 0v16q77 0 116 43q41 45 41 119v1114q0 164 -157 164v17h469v-17q-82 0 -121 -45t-39 -119v-493h844v493q0 72 -39 117q-41 47 -121 47v17h469v-17q-84 0 -121 -45q-37 -47 -37 -119v-1114q0 -162 158 -162v-16h-469v16q72 0 117 41q43 41 43 119v578h-844v-576 q0 -76 43 -119t117 -43v-16h-469z" />
<glyph unicode="I" horiz-adv-x="616" d="M76 0v16q65 0 110 37q47 37 47 125v1118q0 90 -47 125t-110 35v17h467v-17q-68 0 -113 -37t-45 -123v-1118q0 -84 49 -123q47 -39 109 -39v-16h-467z" />
<glyph unicode="J" horiz-adv-x="724" d="M-63 -150l10 11q83 -68 184 -68q137 0 174 94q37 96 37 236v1169q0 158 -158 164v17h465v-17q-66 -4 -110 -41q-45 -39 -45 -123v-1208q0 -104 -27 -172q-29 -72 -74 -115q-43 -41 -96 -59q-51 -18 -107 -19q-63 0 -108 19q-39 16 -78 47q-30 24 -67 65z" />
<glyph unicode="K" horiz-adv-x="1363" d="M68 0v16q49 4 77 17q39 18 58 49q23 39 22 96v1118q0 90 -47 125q-43 31 -110 35v17h467v-17q-158 -6 -158 -160v-544l565 565q0 -3 2 1q1 2 2 5q47 43 47 74q0 35 -28 45q-23 8 -82 14v17h407v-17q-70 -4 -110 -14q-45 -12 -95 -56q-12 -10 -20 -19t-11 -12t-7.5 -6 t-8.5 -8q-25 -20 -28 -24l-502 -496l600 -678q72 -78 119 -98q43 -18 127 -29v-16h-318l-659 745v-567q0 -156 158 -162v-16h-467z" />
<glyph unicode="L" horiz-adv-x="1024" d="M76 0v16h20q53 0 97 43q41 41 40 119v1112q0 90 -47 127q-45 35 -110 39v17h471v-17q-61 -3 -111 -37q-47 -33 -47 -129v-1075q0 -98 47 -133q49 -37 158 -37h127q86 0 133 21q51 23 78 61q29 43 59 115h17l-56 -242h-876z" />
<glyph unicode="M" horiz-adv-x="1748" d="M37 0v16q74 0 108 33q35 31 48 84q12 49 18 135l59 1080q0 8 -12 22q-16 20 -29 31q-16 12 -34 24q-33 20 -59.5 24.5t-69.5 6.5v17h342l456 -1205l463 1205h309v-17q-12 -2 -32.5 -4t-26.5 -4q-20 -4 -41 -21q-33 -23 -43 -49q-6 -16 -10 -80q-3 -9 0 -18l51 -1094 q4 -72 33 -118q33 -51 135 -52v-16h-477v16q92 8 127 54q30 38 29 112q0 13 -1 27l-51 1132h-4l-520 -1341l-492 1292h-4l-53 -1044q-1 -20 -1 -37q0 -63 11 -96q14 -45 47 -68q31 -23 95 -31v-16h-371z" />
<glyph unicode="N" horiz-adv-x="1662" d="M6 1456v17h277l1114 -1248v951q0 113 -8 159q-10 57 -46 86q-39 33 -114 35v17h370v-17q-51 -6 -88 -22q-35 -16 -51 -56q-18 -43 -18 -123v-1292h-10l-1131 1262v-906q0 -119 8 -167q10 -57 27 -80q37 -52 129 -56v-16h-369v16q63 4 97 27q34 25 49 86q14 57 14 188v961 l-49 55q-68 78 -105 94q-45 21 -96 29z" />
<glyph unicode="O" horiz-adv-x="1771" d="M106 741q0 162 62 303q61 143 172 250q106 104 252 164q139 57 295 58q154 0 291 -56q139 -55 249 -160q104 -98 172 -249q63 -141 64 -316q0 -205 -102.5 -385t-280.5 -284.5t-391 -104.5t-395 105q-178 102 -285 284q-103 174 -103 391zM283 737q0 -184 51 -331 q49 -141 139 -231.5t194.5 -129.5t221.5 -39q104 0 209 37q109 39 192 119q86 84 142 223q55 141 55 346q0 295 -104.5 461t-239.5 221q-139 57 -256 57q-92 0 -193 -30q-94 -29 -194 -113q-94 -78 -156 -227q-61 -148 -61 -363z" />
<glyph unicode="P" horiz-adv-x="1107" d="M78 0v16q74 4 115 39q43 37 43 123v1114q0 47 -17 84q-15 34 -37 49q-25 18 -47 23l-37 8h-20v17h483q123 0 213 -33q96 -35 154 -90q61 -58 92 -129q31 -70 31 -150q0 -76 -29 -149.5t-88 -126.5q-57 -53 -162 -88q-96 -33 -227 -33q-41 0 -158 12v-508q0 -156 160 -162 v-16h-469zM387 727q72 -14 152 -14q145 0 243.5 73.5t98.5 272.5q0 164 -88 270q-86 104 -265 105q-70 0 -141 -13v-694z" />
<glyph unicode="Q" horiz-adv-x="1771" d="M106 741q0 217 109 398q109 178 289 278q178 98 385 99q164 0 301 -60q141 -61 248 -168q109 -109 166 -248q59 -143 59 -301q0 -150 -64 -305q-61 -150 -180 -262q-59 -55 -98 -82q-43 -29 -88 -51q-33 -16 -88 -35q-45 -14 -90 -24v-5q8 0 43 -20q131 -76 194 -92 q66 -16 133 -17q90 0 144 27q51 27 139 100q2 0 6 4q6 4 6 5l23 -15q-98 -115 -189 -180q-92 -68 -202 -68q-37 0 -70 7q-49 8 -88 22q-51 18 -125 53l-338 168l-3 2q-3 2 -9 4t-12 7q-63 18 -123 41q-51 20 -101 49q-70 41 -125 94q-63 59 -116 137q-39 53 -72 135 q-33 80 -47 152q-17 85 -17 151zM283 745q0 -199 53 -346q53 -145 145 -235q61 -59 125 -90q74 -37 142 -51q70 -14 145 -15q125 0 237 47q109 45 187 135q170 199 170 539q0 223 -60 367q-63 152 -153 229q-96 84 -193 113q-109 33 -194 32q-100 0 -199 -32 q-106 -35 -196.5 -117t-149.5 -227q-59 -148 -59 -349z" />
<glyph unicode="R" horiz-adv-x="1341" d="M70 0v16q49 4 77 17q39 18 58 49q23 39 22 96v1114q0 86 -43 123t-94 37h-20v21h510q123 0 208.5 -37t133.5 -97q45 -57 67 -125q20 -61 21 -127q0 -82 -33 -153q-35 -78 -103 -127q-74 -53 -174 -72v-4q135 -66 244 -254l133 -225q90 -152 143.5 -190.5t108.5 -45.5v-16 h-268l-16.5 21.5l-16.5 21.5l-31 43l-30 45q-18 31 -23 35l-176 291q-51 88 -109 145q-55 55 -104 80q-45 23 -86 29q-39 6 -90 6v-539q0 -156 160 -162v-16h-469zM379 756h84q127 0 217 39q86 37 123 108t37 172q0 86 -33 166q-33 82 -117 137.5t-219 55.5q-59 0 -92 -9 v-669z" />
<glyph unicode="S" horiz-adv-x="960" d="M59 -29v369h17q37 -164 139 -246t254 -82q117 0 180 41q70 43 92 103q27 66 27 120q0 125 -76 203q-72 74 -229 160l-158 90q-49 29 -102 82q-55 55 -84 121q-31 71 -31 160q0 104 55 198q55 96 155.5 153.5t229.5 57.5q100 0 199 -33q14 -8 43 -8q33 0 45 45h16v-315 h-16q-16 111 -94 188q-80 80 -209 80q-86 0 -151.5 -41t-102.5 -108q-35 -63 -35 -158q0 -74 21 -123q23 -57 63 -94q41 -39 101 -76q53 -35 153 -90q163 -89 252 -178q90 -90 90 -242q0 -96 -49 -182q-51 -90 -145 -143q-98 -55 -244 -56q-92 0 -162 19q-57 14 -141 55 q-35 10 -41 10q-20 0 -26.5 -14t-18.5 -66h-17z" />
<glyph unicode="T" horiz-adv-x="1363" d="M33 1186v360h16q14 -23 29 -37q10 -10 31 -20q18 -9 43 -12q33 -4 61 -4h954q95 0 148 73h16v-360h-16q-12 145 -84 186q-74 43 -180 43h-293v-1237q0 -156 160 -162v-16h-469v16q68 4 112 39q45 37 45 123v1237h-293q-106 0 -180 -43q-72 -41 -84 -186h-16z" />
<glyph unicode="U" horiz-adv-x="1597" d="M72 1456v17h463v-17q-100 -12 -129 -59t-29 -105v-721q0 -223 45 -325q49 -111 143 -174.5t219 -63.5q51 0 121 19q74 18 131 59q182 125 183 401v805q0 63 -27 108.5t-133 55.5v17h471v-17q-104 -6 -131 -57q-29 -53 -29 -105v-1116q0 -58 19 -92q16 -29 55 -47 q25 -12 84 -23v-16h-309v244l-5 4q-63 -150 -192 -217q-133 -70 -266 -70q-154 0 -283 76q-126 74 -184 184q-41 72 -53 162q-10 72 -11 176v733q0 66 -26.5 111t-126.5 53z" />
<glyph unicode="V" d="M20 1456v17h484v-17q-61 -6 -98 -24.5t-37 -85.5q0 -14 16 -74q4 -8 4 -10t1 -6l1 -3l387 -1034h4l332 963q35 100 35 149q0 80 -33 100.5t-100 24.5v17h370v-17q-55 -6 -94 -39q-37 -31 -61 -80q-33 -66 -60 -131q-4 -2 -10 -24l-426 -1221h-14l-502 1321l-4 12 q-25 80 -76 123q-45 39 -119 39z" />
<glyph unicode="W" horiz-adv-x="2088" d="M20 1456v17h457v-17q-55 -2 -90 -37q-31 -31 -31 -78q0 -41 17 -90l311 -995h4l334 995l-14 45q-23 68 -60 111q-41 47 -125 49v17h471v-17q-80 0 -104 -41q-23 -37 -23 -74q0 -47 15 -90l307 -995h4l313 922q6 14 25 88q12 49 12 84q0 68 -31 86q-29 16 -94 20v17h353 v-17q-47 -10 -80 -33q-35 -27 -70 -82q-31 -49 -70 -163l-413 -1217h-15l-376 1217h-5l-409 -1217h-15l-419 1342q-23 70 -56 104q-33 33 -57 39q-35 8 -66 10z" />
<glyph unicode="X" horiz-adv-x="1492" d="M20 0v16h8q126 0 212 107q66 78 67 82l359 495l-365 551q-84 131 -141 164q-61 35 -129 41v17h530v-17q-74 -4 -98 -31q-25 -28 -25 -61q0 -55 51 -133l267 -402l295 402q63 88 63 139q0 27 -20 53q-23 31 -93 33v17h385v-17q-55 -6 -98 -29q-49 -25 -112 -106 q-76 -92 -82 -102l-314 -428l373 -558q68 -104 127 -151t98 -55q47 -10 95 -11v-16h-555v16q70 0 92 33t22 60q0 39 -41 104l-299 451l-301 -416q-57 -76 -57 -135q0 -31 24 -64t92 -33h11v-16h-441z" />
<glyph unicode="Y" d="M20 1456v17h523v-17q-80 -4 -103 -35q-23 -33 -22 -59q0 -33 39 -90l307 -455l272 410q61 92 62 141q0 33 -17 53q-16 18 -32 25q-25 8 -37 10v17h374v-17q-68 0 -118 -31q-53 -31 -80 -63q-43 -51 -62 -78l-344 -518v-590q0 -78 47 -119q43 -37 115 -41v-16h-467v16 q72 4 113 41q41 39 41 119v565l-375 562q-59 90 -106 120q-46 29 -130 33z" />
<glyph unicode="Z" horiz-adv-x="1320" d="M29 0v31l1018 1386h-705q-82 0 -143 -20q-53 -18 -88 -66q-31 -43 -48 -127h-16v269h1206v-29l-1020 -1389h707q117 0 184.5 24.5t96 63.5t59.5 103h16l-69 -246h-1198z" />
<glyph unicode="[" horiz-adv-x="616" d="M186 -190v1663h432v-19h-122q-111 0 -146 -53q-33 -51 -33 -123v-1278q0 -102 50 -139q47 -35 139 -35h112v-16h-432z" />
<glyph unicode="\" horiz-adv-x="567" d="M2 1386h125l448 -1417h-129z" />
<glyph unicode="]" horiz-adv-x="616" d="M0 -174h113q102 0 143 39q45 41 45 135v1278q0 49 -12 86q-12 39 -49 63q-39 27 -117 27h-123v19h432v-1663h-432v16z" />
<glyph unicode="^" horiz-adv-x="1189" d="M147 666l410 718h82l405 -718h-159l-295 512l-291 -512h-152z" />
<glyph unicode="_" horiz-adv-x="1024" d="M-12 -154h1048v-102h-1048v102z" />
<glyph unicode="`" horiz-adv-x="681" d="M147 1939h125l197 -333h-37z" />
<glyph unicode="a" d="M25 0v16q76 6 118 56q45 51 78 151l416 1268h108l441 -1262q35 -100 65.5 -143t59.5 -55q25 -10 73 -15v-16h-481v16q78 0 115 15q39 14 39 75q0 33 -19 91l-4 12l-131 391h-510l-117 -362q-25 -74 -24 -119q0 -61 31 -82q29 -20 88 -21v-16h-346zM410 653h469l-240 699 h-4z" />
<glyph unicode="b" horiz-adv-x="1173" d="M72 0v16h20q55 0 96 41t41 121v1112q0 80 -36.5 123t-102.5 43h-18v17h481q96 0 174 -27q86 -29 137 -76q51 -45 84 -110q31 -61 31 -134q0 -135 -86 -217q-82 -80 -231 -121v-4q74 -6 126 -20q66 -16 111 -39q47 -23 92 -66q35 -33 66 -79q25 -37 41 -93q14 -45 14 -104 q0 -115 -59 -199q-55 -78 -135 -125q-109 -59 -295 -59h-551zM381 221q0 -47 10 -88q8 -35 57.5 -61.5t145.5 -26.5q203 0 289 135q59 94 59 209q0 88 -29 152q-33 72 -82 114q-51 45 -129 70q-84 27 -170 27h-151v-531zM381 797h96q119 0 168 24q33 16 66 43q39 33 67 88 q31 61 31 146q0 70 -21 125q-23 61 -61 106q-43 49 -94 72q-59 27 -121 26q-53 0 -131 -22v-608z" />
<glyph unicode="c" horiz-adv-x="1472" d="M109 717q0 217 106 399q109 188 287 293q180 106 393 107q135 0 279 -39l104 -29q31 -6 51 -6q39 0 51 12q16 16 21 41h16l-14 -352h-17q-18 109 -102 182q-90 80 -188 111q-111 35 -201 34q-125 0 -237.5 -53t-192.5 -151q-82 -100 -127 -233.5t-45 -297.5 q0 -154 43 -286q43 -131 127 -232q82 -98 194 -147q111 -49 244 -50q113 0 246 46q137 47 242 151v-57q-125 -98 -244 -152q-106 -47 -275 -47q-176 0 -317 64q-145 66 -244 172q-96 106 -149 241q-51 134 -51 279z" />
<glyph unicode="d" horiz-adv-x="1597" d="M76 0v16h20q70 0 103 52q35 53 34 110v1112q0 57 -18 94t-49 56q-27 16 -70 16h-20v17h567q123 0 219 -21q109 -23 180 -53q70 -29 138 -76q61 -41 98 -82q70 -70 119 -156t73 -180q25 -95 25 -196q0 -100 -25 -193q-27 -100 -67.5 -167.5t-108.5 -139.5 q-55 -57 -145 -115q-70 -43 -164 -67q-100 -27 -248 -27h-661zM385 236q0 -88 26.5 -127t86 -51.5t170.5 -12.5q160 0 270 31q104 29 213 141q76 78 123 199q45 115 45 282q0 131 -37 260q-37 127 -113 228q-86 113 -219 178q-129 63 -321 63q-96 0 -244 -24v-1167z" />
<glyph unicode="e" horiz-adv-x="1042" d="M72 0v16h20q46 0 92 37q45 37 45 125v1110q0 70 -30.5 119t-106.5 49h-20v17h878v-232h-14q0 186 -248 186h-307v-669h270q74 0 144 26q61 25 71 119h15v-334h-15q-8 55 -35 88q-23 29 -49 39.5t-43 10.5q-37 6 -75 6h-283v-523q0 -57 22 -102q22 -43 105 -43h219 q74 0 129 23q49 20 82 63q23 31 49 100h14l-51 -231h-878z" />
<glyph unicode="f" horiz-adv-x="1042" d="M70 0v16h20q61 0 100 45t39 117v1114q0 95 -43 129q-45 35 -96 35h-20v17h884v-224h-16q-6 66 -51 123q-43 55 -152 55h-354v-667h330q96 0 129 39q35 41 43 106h16v-334h-16q-6 66 -41 103q-37 41 -131 41h-330v-537q0 -74 43 -117q45 -45 100 -45h21v-16h-475z" />
<glyph unicode="g" horiz-adv-x="1597" d="M109 733q0 150 55 291t159.5 251.5t256.5 176.5q147 63 335 64q80 0 140 -9q37 -4 202 -39q53 -12 76 -12q51 0 72 49h16v-338h-16q-31 143 -170 224q-137 80 -315 79q-88 0 -197 -28q-100 -27 -207 -105q-100 -74 -165.5 -217t-65.5 -358q0 -340 161 -549 q160 -207 515 -207q141 0 206.5 18.5t83.5 53.5q18 33 19 88v270q0 98 -41 127q-45 33 -125 41v17h479v-17q-63 -6 -102 -29q-35 -20 -47 -55q-12 -33 -13 -90v-410q-225 -59 -454 -59q-129 0 -240 21q-119 23 -246 88q-123 66 -225 204q-147 203 -147 459z" />
<glyph unicode="h" horiz-adv-x="1597" d="M70 0v16q77 0 116 43q41 45 41 119v1114q0 164 -157 164v17h469v-17q-82 0 -121 -45t-39 -119v-493h844v493q0 72 -39 117q-41 47 -121 47v17h469v-17q-84 0 -121 -45q-37 -47 -37 -119v-1114q0 -162 158 -162v-16h-469v16q72 0 117 41q43 41 43 119v578h-844v-576 q0 -76 43 -119t117 -43v-16h-469z" />
<glyph unicode="i" horiz-adv-x="616" d="M76 0v16q65 0 110 37q47 37 47 125v1118q0 90 -47 125t-110 35v17h467v-17q-68 0 -113 -37t-45 -123v-1118q0 -84 49 -123q47 -39 109 -39v-16h-467z" />
<glyph unicode="j" horiz-adv-x="724" d="M-63 -150l10 11q83 -68 184 -68q137 0 174 94q37 96 37 236v1169q0 158 -158 164v17h465v-17q-66 -4 -110 -41q-45 -39 -45 -123v-1208q0 -104 -27 -172q-29 -72 -74 -115q-43 -41 -96 -59q-51 -18 -107 -19q-63 0 -108 19q-39 16 -78 47q-30 24 -67 65z" />
<glyph unicode="k" horiz-adv-x="1363" d="M68 0v16q49 4 77 17q39 18 58 49q23 39 22 96v1118q0 90 -47 125q-43 31 -110 35v17h467v-17q-158 -6 -158 -160v-544l565 565q0 -3 2 1q1 2 2 5q47 43 47 74q0 35 -28 45q-23 8 -82 14v17h407v-17q-70 -4 -110 -14q-45 -12 -95 -56q-12 -10 -20 -19t-11 -12t-7.5 -6 t-8.5 -8q-25 -20 -28 -24l-502 -496l600 -678q72 -78 119 -98q43 -18 127 -29v-16h-318l-659 745v-567q0 -156 158 -162v-16h-467z" />
<glyph unicode="l" horiz-adv-x="1024" d="M76 0v16h20q53 0 97 43q41 41 40 119v1112q0 90 -47 127q-45 35 -110 39v17h471v-17q-61 -3 -111 -37q-47 -33 -47 -129v-1075q0 -98 47 -133q49 -37 158 -37h127q86 0 133 21q51 23 78 61q29 43 59 115h17l-56 -242h-876z" />
<glyph unicode="m" horiz-adv-x="1748" d="M37 0v16q74 0 108 33q35 31 48 84q12 49 18 135l59 1080q0 8 -12 22q-16 20 -29 31q-16 12 -34 24q-33 20 -59.5 24.5t-69.5 6.5v17h342l456 -1205l463 1205h309v-17q-12 -2 -32.5 -4t-26.5 -4q-20 -4 -41 -21q-33 -23 -43 -49q-6 -16 -10 -80q-3 -9 0 -18l51 -1094 q4 -72 33 -118q33 -51 135 -52v-16h-477v16q92 8 127 54q30 38 29 112q0 13 -1 27l-51 1132h-4l-520 -1341l-492 1292h-4l-53 -1044q-1 -20 -1 -37q0 -63 11 -96q14 -45 47 -68q31 -23 95 -31v-16h-371z" />
<glyph unicode="n" horiz-adv-x="1662" d="M6 1456v17h277l1114 -1248v951q0 113 -8 159q-10 57 -46 86q-39 33 -114 35v17h370v-17q-51 -6 -88 -22q-35 -16 -51 -56q-18 -43 -18 -123v-1292h-10l-1131 1262v-906q0 -119 8 -167q10 -57 27 -80q37 -52 129 -56v-16h-369v16q63 4 97 27q34 25 49 86q14 57 14 188v961 l-49 55q-68 78 -105 94q-45 21 -96 29z" />
<glyph unicode="o" horiz-adv-x="1771" d="M106 741q0 162 62 303q61 143 172 250q106 104 252 164q139 57 295 58q154 0 291 -56q139 -55 249 -160q104 -98 172 -249q63 -141 64 -316q0 -205 -102.5 -385t-280.5 -284.5t-391 -104.5t-395 105q-178 102 -285 284q-103 174 -103 391zM283 737q0 -184 51 -331 q49 -141 139 -231.5t194.5 -129.5t221.5 -39q104 0 209 37q109 39 192 119q86 84 142 223q55 141 55 346q0 295 -104.5 461t-239.5 221q-139 57 -256 57q-92 0 -193 -30q-94 -29 -194 -113q-94 -78 -156 -227q-61 -148 -61 -363z" />
<glyph unicode="p" horiz-adv-x="1107" d="M78 0v16q74 4 115 39q43 37 43 123v1114q0 47 -17 84q-15 34 -37 49q-25 18 -47 23l-37 8h-20v17h483q123 0 213 -33q96 -35 154 -90q61 -58 92 -129q31 -70 31 -150q0 -76 -29 -149.5t-88 -126.5q-57 -53 -162 -88q-96 -33 -227 -33q-41 0 -158 12v-508q0 -156 160 -162 v-16h-469zM387 727q72 -14 152 -14q145 0 243.5 73.5t98.5 272.5q0 164 -88 270q-86 104 -265 105q-70 0 -141 -13v-694z" />
<glyph unicode="q" horiz-adv-x="1771" d="M106 741q0 217 109 398q109 178 289 278q178 98 385 99q164 0 301 -60q141 -61 248 -168q109 -109 166 -248q59 -143 59 -301q0 -150 -64 -305q-61 -150 -180 -262q-59 -55 -98 -82q-43 -29 -88 -51q-33 -16 -88 -35q-45 -14 -90 -24v-5q8 0 43 -20q131 -76 194 -92 q66 -16 133 -17q90 0 144 27q51 27 139 100q2 0 6 4q6 4 6 5l23 -15q-98 -115 -189 -180q-92 -68 -202 -68q-37 0 -70 7q-49 8 -88 22q-51 18 -125 53l-338 168l-3 2q-3 2 -9 4t-12 7q-63 18 -123 41q-51 20 -101 49q-70 41 -125 94q-63 59 -116 137q-39 53 -72 135 q-33 80 -47 152q-17 85 -17 151zM283 745q0 -199 53 -346q53 -145 145 -235q61 -59 125 -90q74 -37 142 -51q70 -14 145 -15q125 0 237 47q109 45 187 135q170 199 170 539q0 223 -60 367q-63 152 -153 229q-96 84 -193 113q-109 33 -194 32q-100 0 -199 -32 q-106 -35 -196.5 -117t-149.5 -227q-59 -148 -59 -349z" />
<glyph unicode="r" horiz-adv-x="1341" d="M70 0v16q49 4 77 17q39 18 58 49q23 39 22 96v1114q0 86 -43 123t-94 37h-20v21h510q123 0 208.5 -37t133.5 -97q45 -57 67 -125q20 -61 21 -127q0 -82 -33 -153q-35 -78 -103 -127q-74 -53 -174 -72v-4q135 -66 244 -254l133 -225q90 -152 143.5 -190.5t108.5 -45.5v-16 h-268l-16.5 21.5l-16.5 21.5l-31 43l-30 45q-18 31 -23 35l-176 291q-51 88 -109 145q-55 55 -104 80q-45 23 -86 29q-39 6 -90 6v-539q0 -156 160 -162v-16h-469zM379 756h84q127 0 217 39q86 37 123 108t37 172q0 86 -33 166q-33 82 -117 137.5t-219 55.5q-59 0 -92 -9 v-669z" />
<glyph unicode="s" horiz-adv-x="960" d="M59 -29v369h17q37 -164 139 -246t254 -82q117 0 180 41q70 43 92 103q27 66 27 120q0 125 -76 203q-72 74 -229 160l-158 90q-49 29 -102 82q-55 55 -84 121q-31 71 -31 160q0 104 55 198q55 96 155.5 153.5t229.5 57.5q100 0 199 -33q14 -8 43 -8q33 0 45 45h16v-315 h-16q-16 111 -94 188q-80 80 -209 80q-86 0 -151.5 -41t-102.5 -108q-35 -63 -35 -158q0 -74 21 -123q23 -57 63 -94q41 -39 101 -76q53 -35 153 -90q163 -89 252 -178q90 -90 90 -242q0 -96 -49 -182q-51 -90 -145 -143q-98 -55 -244 -56q-92 0 -162 19q-57 14 -141 55 q-35 10 -41 10q-20 0 -26.5 -14t-18.5 -66h-17z" />
<glyph unicode="t" horiz-adv-x="1363" d="M33 1186v360h16q14 -23 29 -37q10 -10 31 -20q18 -9 43 -12q33 -4 61 -4h954q95 0 148 73h16v-360h-16q-12 145 -84 186q-74 43 -180 43h-293v-1237q0 -156 160 -162v-16h-469v16q68 4 112 39q45 37 45 123v1237h-293q-106 0 -180 -43q-72 -41 -84 -186h-16z" />
<glyph unicode="u" horiz-adv-x="1597" d="M72 1456v17h463v-17q-100 -12 -129 -59t-29 -105v-721q0 -223 45 -325q49 -111 143 -174.5t219 -63.5q51 0 121 19q74 18 131 59q182 125 183 401v805q0 63 -27 108.5t-133 55.5v17h471v-17q-104 -6 -131 -57q-29 -53 -29 -105v-1116q0 -58 19 -92q16 -29 55 -47 q25 -12 84 -23v-16h-309v244l-5 4q-63 -150 -192 -217q-133 -70 -266 -70q-154 0 -283 76q-126 74 -184 184q-41 72 -53 162q-10 72 -11 176v733q0 66 -26.5 111t-126.5 53z" />
<glyph unicode="v" d="M20 1456v17h484v-17q-61 -6 -98 -24.5t-37 -85.5q0 -14 16 -74q4 -8 4 -10t1 -6l1 -3l387 -1034h4l332 963q35 100 35 149q0 80 -33 100.5t-100 24.5v17h370v-17q-55 -6 -94 -39q-37 -31 -61 -80q-33 -66 -60 -131q-4 -2 -10 -24l-426 -1221h-14l-502 1321l-4 12 q-25 80 -76 123q-45 39 -119 39z" />
<glyph unicode="w" horiz-adv-x="2088" d="M20 1456v17h457v-17q-55 -2 -90 -37q-31 -31 -31 -78q0 -41 17 -90l311 -995h4l334 995l-14 45q-23 68 -60 111q-41 47 -125 49v17h471v-17q-80 0 -104 -41q-23 -37 -23 -74q0 -47 15 -90l307 -995h4l313 922q6 14 25 88q12 49 12 84q0 68 -31 86q-29 16 -94 20v17h353 v-17q-47 -10 -80 -33q-35 -27 -70 -82q-31 -49 -70 -163l-413 -1217h-15l-376 1217h-5l-409 -1217h-15l-419 1342q-23 70 -56 104q-33 33 -57 39q-35 8 -66 10z" />
<glyph unicode="x" horiz-adv-x="1492" d="M20 0v16h8q126 0 212 107q66 78 67 82l359 495l-365 551q-84 131 -141 164q-61 35 -129 41v17h530v-17q-74 -4 -98 -31q-25 -28 -25 -61q0 -55 51 -133l267 -402l295 402q63 88 63 139q0 27 -20 53q-23 31 -93 33v17h385v-17q-55 -6 -98 -29q-49 -25 -112 -106 q-76 -92 -82 -102l-314 -428l373 -558q68 -104 127 -151t98 -55q47 -10 95 -11v-16h-555v16q70 0 92 33t22 60q0 39 -41 104l-299 451l-301 -416q-57 -76 -57 -135q0 -31 24 -64t92 -33h11v-16h-441z" />
<glyph unicode="y" d="M20 1456v17h523v-17q-80 -4 -103 -35q-23 -33 -22 -59q0 -33 39 -90l307 -455l272 410q61 92 62 141q0 33 -17 53q-16 18 -32 25q-25 8 -37 10v17h374v-17q-68 0 -118 -31q-53 -31 -80 -63q-43 -51 -62 -78l-344 -518v-590q0 -78 47 -119q43 -37 115 -41v-16h-467v16 q72 4 113 41q41 39 41 119v565l-375 562q-59 90 -106 120q-46 29 -130 33z" />
<glyph unicode="z" horiz-adv-x="1320" d="M29 0v31l1018 1386h-705q-82 0 -143 -20q-53 -18 -88 -66q-31 -43 -48 -127h-16v269h1206v-29l-1020 -1389h707q117 0 184.5 24.5t96 63.5t59.5 103h16l-69 -246h-1198z" />
<glyph unicode="{" horiz-adv-x="616" d="M74 621v36q82 23 114.5 37.5t65.5 53.5q57 63 57 129q0 57 -14 122q-29 150 -29 187q0 66 21 125q18 55 65 114q41 53 111 95q63 39 153 51v-41q-76 -12 -126 -47q-45 -31 -72 -84q-25 -49 -25 -96q0 -37 15 -115l22 -131q6 -37 6 -80q0 -66 -53 -166t-231 -170 q68 -25 133 -72q61 -43 106 -118q43 -70 43 -158q0 -37 -26 -180q-18 -89 -19 -136q0 -59 45 -131q43 -68 182 -102v-35q-162 31 -256 137q-96 109 -96 248q0 61 15 127q14 49 22 101q8 25 8 63q0 74 -37 123q-39 51 -92 78q-51 25 -108 35z" />
<glyph unicode="|" horiz-adv-x="409" d="M133 -362v1740h143v-1740h-143z" />
<glyph unicode="}" horiz-adv-x="616" d="M0 -252q111 18 166 86t55 143q0 51 -12 113q-31 154 -31 211q0 72 51.5 168t233.5 170q-119 47 -199 131q-84 88 -84 217q0 53 27 180q18 90 18 133q0 61 -45 134q-45 70 -180 100v37q82 -12 145 -49q66 -39 111 -88q49 -55 72 -115q25 -66 24 -133q0 -55 -16 -127 q-2 -25 -23 -103q-6 -31 -6 -61q0 -104 74 -164q70 -55 164 -72v-36q-82 -20 -109 -35q-43 -20 -74 -56q-57 -57 -57 -131q0 -61 17 -120q27 -150 26 -189q0 -88 -39 -166q-41 -82 -116 -139q-78 -59 -193 -78v39z" />
<glyph unicode="~" horiz-adv-x="1064" d="M12 387q10 166 82 244q74 80 178 80q55 0 105 -15q98 -27 278 -104q88 -41 148 -57q27 -8 63 -9q70 0 121 47q47 45 57 136h58q-6 -156 -84 -240t-187 -84q-53 0 -112 18q-82 27 -262 103q-143 59 -211 59q-70 0 -113 -41q-45 -43 -63 -137h-58z" />
<glyph unicode="&#xa1;" horiz-adv-x="339" d="M80 1360q0 41 26 65q29 25 66 25q25 0 47 -12q20 -10 31 -31q12 -23 12 -47q0 -33 -26 -64q-25 -29 -64 -28.5t-65.5 27t-26.5 65.5zM92 100q0 20 2 43q4 45 4 66q0 12 1 27.5t1 19.5q2 12 11 139q2 31 6 76t4 61l1 11l3 31.5t4 46.5q2 31 6 73.5t4 57.5q2 43 6 75 q4 47 8.5 93.5t6.5 86.5t4 56h12q12 -84 23 -240l1 -9q1 -9 3 -34.5t4 -54.5q2 -31 5 -69t8 -92t7 -91q4 -59 12.5 -135t8.5 -86q2 -14 6 -59q4 -57 4 -76q0 -156 -86 -156q-80 0 -80 139z" />
<glyph unicode="&#xa2;" horiz-adv-x="1069" d="M106 432q0 104 37 197q37 90 103 159q63 66 149 105q84 37 174 37h58q4 0 12 -1t10 -1q6 0 23 -4l84 258h43l-88 -271l3 -1q3 -1 9 -2t10 -1q14 -2 41 -12q35 -10 53 -10q39 0 64 43h47v-316h-39q-25 121 -82 176.5t-121 75.5l-241 -751l51 -31q23 -14 53 -25 q25 -8 66 -8q117 0 196 55q76 51 144 134v-66q-4 -4 -29 -33l-25 -28q-57 -57 -123 -88q-55 -27 -116 -37q-49 -8 -107 -9q-84 0 -145 21l-92 -279h-43l96 293q-102 37 -188.5 135.5t-86.5 284.5zM285 506q0 -102 26 -180q29 -84 59.5 -125t51.5 -56l233 732q-43 8 -69 8 q-68 0 -137 -39q-74 -41 -117 -123q-47 -88 -47 -217z" />
<glyph unicode="&#xa3;" horiz-adv-x="1193" d="M18 106v11q68 25 103 72t61 145q29 98 76 409h-176v115h192q16 86 50 207q25 89 86 197q61 106 171.5 180t270.5 74q61 0 149 -19q89 -18 173 -80l-84 -227h-13q4 37 4 57q0 106 -61 162q-63 57 -162 57q-158 0 -237 -96q-51 -57 -91 -141q-33 -70 -53 -154 q-39 -162 -45 -217h283v-115h-305q-12 -100 -29 -188q-20 -106 -49 -213q-29 -104 -58 -160q164 -45 246 -63q139 -31 205 -39q92 -12 160 -12q39 0 125 14q72 12 112 53l13 -8q-39 -86 -123 -127q-80 -39 -207 -39q-102 0 -180 14q-111 20 -324 70l-254 55q-15 0 -29 6z " />
<glyph unicode="&#xa4;" horiz-adv-x="1024" d="M20 1069l95 92l133 -135q125 90 260 90q131 0 270 -90l140 135l88 -86l-140 -139q86 -123 86 -260t-86 -266l129 -127l-92 -93l-131 129q-80 -49 -135 -67q-49 -16 -127 -16q-76 0 -133 18q-55 18 -129 65l-133 -129l-88 93l131 127q-88 115 -88 262q0 72 20 139 q18 63 68 125zM197 676q0 -131 92 -223q90 -90 221 -90.5t221 90.5q92 92 92 223q0 127 -92 219t-221 92t-221 -92t-92 -219z" />
<glyph unicode="&#xa5;" d="M18 1456v17h523v-17q-80 -4 -103 -35q-23 -33 -22 -59q0 -33 39 -90l307 -455l272 410q61 92 62 141q0 33 -17 53q-16 18 -32 25q-25 8 -37 10v17h374v-17q-66 0 -119 -30.5t-79 -63.5q-43 -51 -62 -78l-313 -473h487v-45h-516v-291h516v-45h-516v-252q0 -96 53.5 -129 t106.5 -33v-16h-465v16q43 0 72 15q33 16 43 26q39 33 39 121v252h-518v45h518v266l-19 25h-499v45h471l-330 492q-59 90 -107 120q-45 29 -129 33z" />
<glyph unicode="&#xa6;" horiz-adv-x="530" d="M188 360h156v-790h-156v790zM188 700v791h156v-791h-156z" />
<glyph unicode="&#xa7;" horiz-adv-x="933" d="M63 643q0 98 52 178q47 76 133 107q-47 55 -78 123q-27 59 -27 125q0 135 86 225t220 90q141 0 229 -86t106 -260l-151 -21q-18 125 -64 172q-43 47 -114 47q-68 0 -119 -47q-49 -47 -49 -114q0 -28 12 -56q18 -41 33 -59q39 -53 235 -199q164 -121 215 -188 q72 -92 72 -215q0 -113 -53 -186q-35 -49 -133 -101q66 -61 98 -131q33 -68 33 -149q0 -143 -92.5 -235.5t-237.5 -92.5t-240 92q-92 90 -114 268l147 27q25 -133 76 -184.5t133 -51.5q80 0 129 49.5t49 125.5q0 31 -8 55q-8 27 -31 51q-59 74 -268 231q-154 113 -201 181 q-78 108 -78 229zM199 664q0 -61 37 -121q33 -53 170 -152q104 -74 188 -147q57 37 90 88q31 49 31 98q0 59 -43 121q-45 63 -185 170q-115 82 -168 137q-68 -49 -94 -94t-26 -100z" />
<glyph unicode="&#xa8;" horiz-adv-x="681" d="M43 1702q0 39 29 67q27 27 67 27q39 0 66 -27q29 -29 28 -67q0 -41 -26 -68q-29 -29 -68 -28.5t-67.5 29t-28.5 67.5zM446 1702q0 39 29 67.5t68 28.5t67.5 -28.5t28.5 -67.5q0 -37 -27 -66q-27 -31 -69 -30q-40 0 -68 30q-29 33 -29 66z" />
<glyph unicode="&#xa9;" horiz-adv-x="1576" d="M82 666q0 193 94 354.5t260 257.5q162 94 352 94q193 0 355 -94q164 -96 258 -256q96 -164 96 -356.5t-96 -356.5q-95 -163 -258 -258q-162 -94 -355 -94q-190 0 -354 96q-163 95 -258 258q-94 162 -94 355zM135 664q0 -174 88 -328q84 -147 236 -238q150 -88 329 -88 q178 0 328 88q152 90 238 240q88 154 88 326q0 180 -88 329q-90 152 -238 236q-154 88 -328 88q-178 0 -327 -86q-145 -82 -238 -240q-88 -149 -88 -327zM371 672q0 135 61.5 239.5t159.5 159.5q102 57 209 57q74 0 172 -34q12 -6 24 -11q18 -6 37 -6q16 0 29 17 q10 12 10 39h31l20 -293h-30q-23 84 -86 166q-61 80 -199 79q-145 0 -225 -120q-78 -117 -78 -285q0 -217 100 -303q101 -86 221 -86q100 0 174 51q70 47 123 121l21 -14q-127 -219 -348 -220q-89 0 -166 31t-135 92q-61 63 -93 142q-32 80 -32 178z" />
<glyph unicode="&#xaa;" horiz-adv-x="616" d="M47 1079q0 76 59 109q61 35 144 55q55 12 123 37v39q0 76 -41 102.5t-82 26.5q-94 0 -144 -105q-8 -8 -8 -16l-43 12q16 59 70 119q51 57 158 58q102 0 174 -70q31 -31 37 -70q8 -53 8 -96v-203q0 -33 4 -57q2 -18 20 -19q23 0 35 52h43q0 -61 -41 -90t-86 -29t-69 20 q-23 18 -35 47q-33 -33 -64 -49q-35 -18 -88 -18q-68 0 -123 45q-51 43 -51 100zM178 1094q0 -49 29 -74q27 -25 53 -25q70 0 113 66v176q-4 -2 -13.5 -5l-21.5 -7l-25 -8q-78 -25 -102 -43q-33 -25 -33 -80z" />
<glyph unicode="&#xab;" horiz-adv-x="724" d="M25 727l331 498h25l-207 -498l207 -498h-25zM340 727l332 498h24l-204 -498l204 -498h-24z" />
<glyph unicode="&#xac;" horiz-adv-x="1458" d="M31 477v113h1362v-590h-113v477h-1249z" />
<glyph unicode="&#xad;" horiz-adv-x="638" d="M55 772h529v-82h-529v82z" />
<glyph unicode="&#xae;" horiz-adv-x="1576" d="M82 670q0 193 94 354.5t260 257.5q162 94 352 94q143 0 275 -53q123 -49 225 -152q98 -98 153.5 -227t55.5 -274q0 -190 -96 -355q-96 -166 -258 -260t-355 -94q-143 0 -272 55.5t-227 153.5q-94 94 -152 227q-55 130 -55 273zM135 668q0 -178 88 -328q89 -151 240 -240 q150 -88 325 -88q178 0 328 88q151 89 240 240q88 150 88 328q0 131 -51 256q-49 120 -142 209q-98 94 -211 141q-120 49 -252 49q-133 0 -249 -49q-121 -51 -211 -141q-92 -92 -142 -211q-51 -125 -51 -254zM391 244v35q61 0 86 12q23 10 29 39q6 25 6 90v526q0 63 -10 86 q-12 28 -37 37q-23 8 -74 8v31h254q127 0 164 -4q53 -6 98 -29q41 -18 86 -65q41 -43 41 -125q0 -86 -55 -144q-57 -59 -168 -71l166 -224q6 -6 12 -18q59 -80 84 -100q34 -28 61.5 -37t61.5 -12v-35h-205l-4 8t-4 7l-2 3q-2 2 -4 6t-5 9.5t-7 9.5l-29 35q-2 2 -6 10t-8 12 q-10 8 -11 14l-211 291h-69v-229q0 -63 10 -94q8 -27 35 -37q18 -6 82 -10v-35h-367zM631 690q98 -4 184 33q90 37 90 174q0 72 -45 119q-45 49 -145 49q-31 0 -84 -16v-359z" />
<glyph unicode="&#xaf;" horiz-adv-x="1024" d="M-12 1628h1048v-102h-1048v102z" />
<glyph unicode="&#xb0;" horiz-adv-x="817" d="M102 1096q0 61 23 118q20 51 68 99q41 41 100 67q51 23 117 23q68 0 118 -23q55 -25 98.5 -67.5t67.5 -98.5q23 -51 23 -118q0 -86 -41 -154q-45 -74 -113 -113q-72 -41 -153 -41q-86 0 -154 41q-70 43 -113 113q-41 68 -41 154zM184 1095.5q0 -94.5 65.5 -160 t160.5 -65.5q61 0 112 31t82 82q31 53 31 112.5t-31 112.5q-29 49 -84 82q-53 31 -112 31q-92 0 -158 -65.5t-66 -160z" />
<glyph unicode="&#xb1;" horiz-adv-x="1122" d="M20 0v113h1084v-113h-1084zM20 723v113h486v485h112v-485h486v-113h-486v-485h-112v485h-486z" />
<glyph unicode="&#xb2;" horiz-adv-x="681" d="M27 729q33 23 104 84l127 115q74 70 88 88q72 84 100 143q27 55 27 107q0 57 -27 96q-29 43 -69 59q-43 18 -90 19q-53 0 -111 -29q-53 -27 -80 -98h-43q14 57 53 106q37 47 96.5 72t131.5 25q119 0 188.5 -63.5t69.5 -147.5q0 -113 -109 -234q-102 -115 -295 -256v-4 h361q59 0 90 53h31l-41 -135h-602z" />
<glyph unicode="&#xb3;" horiz-adv-x="595" d="M25 805v59l18 -14q47 -41 98 -66q43 -20 105 -20q109 0 139 61q33 66 33 113q0 80 -56 129q-47 45 -149 45h-92v39h55q195 0 195 168q0 49 -17 82q-18 37 -51 57.5t-78 20.5q-100 0 -143 -111h-31v148h31q4 -6 10 -13q2 -2 14.5 -2t22.5 2l16 2q39 10 91 11 q113 0 180 -54q70 -55 69 -133q0 -129 -135 -178l-31 -8v-4l31 -4q70 -12 133.5 -61.5t63.5 -139.5q0 -95 -86 -160q-88 -66 -203 -65q-82 0 -129 26q-53 31 -104 70z" />
<glyph unicode="&#xb4;" horiz-adv-x="681" d="M252 1606l207 327h121l-287 -327h-41z" />
<glyph unicode="&#xb5;" horiz-adv-x="1179" d="M72 -256q14 72 24 104q14 43 23 89q6 31 6 79v1008h176v-682q0 -168 107 -217q43 -20 86 -21q39 0 81 19q43 20 87 57q45 39 63 82v762h176v-786q0 -92 47 -144q49 -49 109 -16q27 16 35 35q14 35 18 53q4 23 10 41h41q-18 -76 -43 -125q-23 -47 -96 -88 q-68 -35 -123 -29q-57 6 -88 31q-35 31 -39 37q-16 25 -22 39q-10 23 -13 41q-4 23 -10 53q-49 -76 -143 -141q-78 -59 -193 -60q-47 0 -80 17q-31 14 -67 45q-31 27 -45 36v-47q2 -63 28 -147q20 -63 33 -125q18 -92 -14 -147q-31 -53 -80 -54q-47 0 -77.5 53.5 t-16.5 147.5z" />
<glyph unicode="&#xb6;" horiz-adv-x="899" d="M4 1044q0 131 49 230q51 100 133 145q88 47 207 47h518v-174h-116v-1700h-142v1700h-182v-1700h-133v1047q-150 10 -242 117t-92 288z" />
<glyph unicode="&#xb8;" horiz-adv-x="681" d="M106 -217q4 -4 15 -6q47 -16 88 -17q55 0 78 21q27 23 26 51q0 31 -16 43q-15 12 -37 19l74 106h74l-58 -80q141 -12 142 -110q0 -66 -57.5 -90.5t-119.5 -24.5q-113 0 -209 51v37z" />
<glyph unicode="&#xb9;" horiz-adv-x="360" d="M35 729v21q94 0 94 77v568q0 78 -94 78v20h207v-666q0 -20 8 -41q6 -16 29 -26q25 -10 57 -10v-21h-301z" />
<glyph unicode="&#xba;" horiz-adv-x="747" d="M43 1225q0 86 45 151q43 66 123 103q76 37 156 37q70 0 129 -20.5t106 -61.5q46 -40 74 -93q27 -51 26 -116q0 -51 -22 -107q-20 -49 -64 -92q-41 -41 -102 -65q-68 -27 -141 -27q-90 0 -168 39q-76 39 -119 104q-43 68 -43 148zM182 1229q0 -114 49 -185q49 -72 144 -71 q80 0 123 49q39 45 53 106q12 55 12 99q0 127 -49 188.5t-143 61.5q-96 0 -142 -72q-47 -76 -47 -176z" />
<glyph unicode="&#xbb;" horiz-adv-x="724" d="M29 229l204 498l-204 498h24l332 -498l-332 -498h-24zM344 229l207 498l-207 498h25l331 -498l-331 -498h-25z" />
<glyph unicode="&#xbc;" horiz-adv-x="1705" d="M106 1174v122q63 23 139.5 74t123.5 115h106v-752h-143v553q-105 -81 -226 -112zM252 -57l1102 1548h155l-1099 -1548h-158zM1047 123v123l405 475h123v-490h102v-108h-102v-154h-145v154h-383zM1200 231h230v263z" />
<glyph unicode="&#xbd;" horiz-adv-x="1705" d="M106 1174v122q63 23 139.5 74t123.5 115h106v-752h-143v553q-105 -81 -226 -112zM227 -57l1102 1548h158l-1102 -1548h-158zM1049 -31q6 53 49 113q63 88 205 190q144 104 172 136q37 39 36 84q0 49 -34 79q-31 29 -105 29q-68 0 -98.5 -22.5t-52.5 -90.5l-152 17 q27 109 102 164q72 53 205 53q150 0 221 -59q70 -57 70 -146q0 -86 -57 -158q-47 -57 -205 -172q-86 -63 -119 -96h385v-121h-622z" />
<glyph unicode="&#xbe;" horiz-adv-x="1705" d="M33 930l145 14q20 -59 53 -82q43 -31 103 -31q72 0 112 39q43 39 43 95q0 51 -34 79q-37 31 -121 31q-14 0 -27.5 -1t-20.5 -2t-10 -1l23 111q82 0 117 28q39 33 39 74q0 39 -31 63.5t-88 24.5q-59 0 -88 -20q-35 -25 -55 -80l-144 22q37 100 105 148q61 43 182 43 q141 0 209 -55q66 -53 65 -134q0 -57 -35 -98q-37 -43 -102 -61q86 -20 131 -72q41 -47 41 -119q0 -96 -78 -162q-82 -70 -225 -69q-141 0 -215 55q-71 56 -94 160zM252 -57l1102 1548h155l-1099 -1548h-158zM1047 123v123l403 475h125v-490h102v-108h-102v-154h-145v154 h-383zM1200 231h230v263z" />
<glyph unicode="&#xbf;" horiz-adv-x="616" d="M53 242q0 66 19 118q20 55 53 105l119 168q68 92 92 139q29 55 45 125q16 68 12 168h15q6 -37 6 -111q0 -98 -21 -159q-18 -57 -80 -154q-76 -115 -102 -174q-29 -63 -29 -154q0 -117 68 -174q70 -59 145 -59q47 0 101 26q55 28 86 99l12 -6q-37 -92 -96 -166 q-59 -72 -176 -72q-115 0 -193 82q-76 78 -76 199zM289 1358q0 41 28 65q27 25 64 25q25 0 47 -12q20 -10 31 -31q12 -20 12 -47q0 -35 -24.5 -63.5t-65.5 -28.5q-39 0 -65.5 26.5t-26.5 65.5z" />
<glyph unicode="&#xc0;" d="M25 0v16q76 6 118 56q45 51 78 151l416 1268h108l441 -1262q35 -100 65.5 -143t59.5 -55q25 -10 73 -15v-16h-481v16q78 0 115 15q39 14 39 75q0 33 -19 91l-4 12l-131 391h-510l-117 -362q-25 -74 -24 -119q0 -61 31 -82q29 -20 88 -21v-16h-346zM410 653h469l-240 699 h-4zM512 1939h125l197 -333h-37z" />
<glyph unicode="&#xc1;" d="M25 0v16q76 6 118 56q45 51 78 151l416 1268h108l441 -1262q35 -100 65.5 -143t59.5 -55q25 -10 73 -15v-16h-481v16q78 0 115 15q39 14 39 75q0 33 -19 91l-4 12l-131 391h-510l-117 -362q-25 -74 -24 -119q0 -61 31 -82q29 -20 88 -21v-16h-346zM410 653h469l-240 699 h-4zM617 1606l207 327h121l-287 -327h-41z" />
<glyph unicode="&#xc2;" d="M25 0v16q76 6 118 56q45 51 78 151l416 1268h108l441 -1262q35 -100 65.5 -143t59.5 -55q25 -10 73 -15v-16h-481v16q78 0 115 15q39 14 39 75q0 33 -19 91l-4 12l-131 391h-510l-117 -362q-25 -74 -24 -119q0 -61 31 -82q29 -20 88 -21v-16h-346zM410 653h469l-240 699 h-4zM406 1606l266 329h53l281 -329h-43l-262 219l-252 -219h-43z" />
<glyph unicode="&#xc3;" d="M25 0v16q76 6 118 56q45 51 78 151l416 1268h108l441 -1262q35 -100 65.5 -143t59.5 -55q25 -10 73 -15v-16h-481v16q78 0 115 15q39 14 39 75q0 33 -19 91l-4 12l-131 391h-510l-117 -362q-25 -74 -24 -119q0 -61 31 -82q29 -20 88 -21v-16h-346zM410 653h469l-240 699 h-4zM408 1608q2 86 57 141q53 53 119 53q27 0 62 -10q66 -20 90 -29q27 -8 50 -16t38.5 -12t19.5 -6q18 -6 37 -6.5t45 14.5q25 14 41 65h37q-12 -80 -59 -137q-47 -55 -115 -55q-35 0 -80 16l-82 29q-111 39 -145.5 39t-51.5 -25q-18 -29 -28 -61h-35z" />
<glyph unicode="&#xc4;" d="M25 0v16q76 6 118 56q45 51 78 151l416 1268h108l441 -1262q35 -100 65.5 -143t59.5 -55q25 -10 73 -15v-16h-481v16q78 0 115 15q39 14 39 75q0 33 -19 91l-4 12l-131 391h-510l-117 -362q-25 -74 -24 -119q0 -61 31 -82q29 -20 88 -21v-16h-346zM410 653h469l-240 699 h-4zM408 1702q0 39 29 67q27 27 67 27q39 0 66 -27q29 -29 28 -67q0 -41 -26 -68q-29 -29 -68 -28.5t-67.5 29t-28.5 67.5zM811 1702q0 39 29 67.5t68 28.5t67.5 -28.5t28.5 -67.5q0 -37 -27 -66q-27 -31 -69 -30q-40 0 -68 30q-29 33 -29 66z" />
<glyph unicode="&#xc5;" d="M25 0v16q76 6 118 56q45 51 78 151l416 1268h108l441 -1262q35 -100 65.5 -143t59.5 -55q25 -10 73 -15v-16h-481v16q78 0 115 15q39 14 39 75q0 33 -19 91l-4 12l-131 391h-510l-117 -362q-25 -74 -24 -119q0 -61 31 -82q29 -20 88 -21v-16h-346zM410 653h469l-240 699 h-4zM705 1966q47 0 90 -24q41 -25 66 -66q25 -43 24 -90q0 -45 -24 -88q-25 -45 -66 -68q-43 -25 -90 -24q-45 0 -88 24q-41 25 -66 66q-25 43 -24.5 90t24.5 90q23 41 64 65.5t90 24.5zM707 1907q-51 0 -86 -35t-35 -86t35 -86t86 -35t84 35q35 39 35 86t-35 86 q-33 35 -84 35z" />
<glyph unicode="&#xc6;" horiz-adv-x="1685" d="M25 0v16q66 10 104 45q43 41 78 115l645 1297h735v-218h-16q0 43 -25 84q-25 39 -63 64q-40 25 -80 24h-389v-659h289q72 0 133 30.5t61 116.5h16v-333h-16q0 80 -57 110q-59 31 -131 31h-295v-547q0 -70 30.5 -100.5t104.5 -30.5h201q78 0 127 18q55 20 86 60 q37 47 57 110h16l-49 -233h-882v16q158 4 157 160v547h-332l-217 -436l-4 -11q-57 -113 -57 -167q0 -37 18 -56q23 -23 41 -26q33 -8 60 -11v-16h-346zM549 768h313v631h-4z" />
<glyph unicode="&#xc7;" horiz-adv-x="1472" d="M106 713q0 193 94.5 379t281 305t450.5 119q119 0 221 -29q141 -45 188 -45q31 0 39 14q6 12 15 41h16l-10 -354h-17q-18 111 -100 182q-88 78 -190 111q-111 35 -203 34q-166 0 -305 -92q-137 -92 -217 -260q-78 -164 -78 -383q0 -215 76 -375q78 -164 217 -252t319 -88 q262 0 483 197v-57q-89 -74 -153 -111q-70 -41 -139 -57q-68 -16 -201 -33l-27 -39q141 -12 142 -110q0 -66 -57.5 -90.5t-119.5 -24.5q-115 0 -210 51v37q6 -2 16 -6q47 -16 88 -17q55 0 78 21q27 23 26 51q0 31 -16 43q-15 12 -37 19l45 65q-147 20 -217 41 q-90 27 -188 94q-104 74 -185 197q-45 68 -71 139q-31 80 -41 143q-13 70 -13 140z" />
<glyph unicode="&#xc8;" horiz-adv-x="1042" d="M72 0v16h20q46 0 92 37q45 37 45 125v1110q0 70 -30.5 119t-106.5 49h-20v17h878v-232h-14q0 186 -248 186h-307v-669h270q74 0 144 26q61 25 71 119h15v-334h-15q-8 55 -35 88q-23 29 -49 39.5t-43 10.5q-37 6 -75 6h-283v-523q0 -57 22 -102q22 -43 105 -43h219 q74 0 129 23q49 20 82 63q23 31 49 100h14l-51 -231h-878zM329 1939h125l197 -333h-37z" />
<glyph unicode="&#xc9;" horiz-adv-x="1042" d="M72 0v16h20q46 0 92 37q45 37 45 125v1110q0 70 -30.5 119t-106.5 49h-20v17h878v-232h-14q0 186 -248 186h-307v-669h270q74 0 144 26q61 25 71 119h15v-334h-15q-8 55 -35 88q-23 29 -49 39.5t-43 10.5q-37 6 -75 6h-283v-523q0 -57 22 -102q22 -43 105 -43h219 q74 0 129 23q49 20 82 63q23 31 49 100h14l-51 -231h-878zM434 1606l207 327h121l-287 -327h-41z" />
<glyph unicode="&#xca;" horiz-adv-x="1042" d="M72 0v16h20q46 0 92 37q45 37 45 125v1110q0 70 -30.5 119t-106.5 49h-20v17h878v-232h-14q0 186 -248 186h-307v-669h270q74 0 144 26q61 25 71 119h15v-334h-15q-8 55 -35 88q-23 29 -49 39.5t-43 10.5q-37 6 -75 6h-283v-523q0 -57 22 -102q22 -43 105 -43h219 q74 0 129 23q49 20 82 63q23 31 49 100h14l-51 -231h-878zM223 1606l266 329h53l281 -329h-43l-262 219l-252 -219h-43z" />
<glyph unicode="&#xcb;" horiz-adv-x="1042" d="M72 0v16h20q46 0 92 37q45 37 45 125v1110q0 70 -30.5 119t-106.5 49h-20v17h878v-232h-14q0 186 -248 186h-307v-669h270q74 0 144 26q61 25 71 119h15v-334h-15q-8 55 -35 88q-23 29 -49 39.5t-43 10.5q-37 6 -75 6h-283v-523q0 -57 22 -102q22 -43 105 -43h219 q74 0 129 23q49 20 82 63q23 31 49 100h14l-51 -231h-878zM246 1702q0 39 29 67q27 27 67 27q39 0 66 -27q29 -29 28 -67q0 -41 -26 -68q-29 -29 -68 -28.5t-67.5 29t-28.5 67.5zM649 1702q0 39 29 67.5t68 28.5t67.5 -28.5t28.5 -67.5q0 -37 -27 -66q-27 -31 -69 -30 q-40 0 -68 30q-29 33 -29 66z" />
<glyph unicode="&#xcc;" horiz-adv-x="616" d="M76 0v16q65 0 110 37q47 37 47 125v1118q0 90 -47 125t-110 35v17h467v-17q-68 0 -113 -37t-45 -123v-1118q0 -84 49 -123q47 -39 109 -39v-16h-467zM116 1939h125l197 -333h-37z" />
<glyph unicode="&#xcd;" horiz-adv-x="616" d="M76 0v16q65 0 110 37q47 37 47 125v1118q0 90 -47 125t-110 35v17h467v-17q-68 0 -113 -37t-45 -123v-1118q0 -84 49 -123q47 -39 109 -39v-16h-467zM221 1606l207 327h121l-287 -327h-41z" />
<glyph unicode="&#xce;" horiz-adv-x="616" d="M76 0v16q65 0 110 37q47 37 47 125v1118q0 90 -47 125t-110 35v17h467v-17q-68 0 -113 -37t-45 -123v-1118q0 -84 49 -123q47 -39 109 -39v-16h-467zM10 1606l266 329h53l281 -329h-43l-262 219l-252 -219h-43z" />
<glyph unicode="&#xcf;" horiz-adv-x="616" d="M76 0v16q65 0 110 37q47 37 47 125v1118q0 90 -47 125t-110 35v17h467v-17q-68 0 -113 -37t-45 -123v-1118q0 -84 49 -123q47 -39 109 -39v-16h-467zM12 1702q0 39 29 67q27 27 67 27q39 0 66 -27q29 -29 28 -67q0 -41 -26 -68q-29 -29 -68 -28.5t-67.5 29t-28.5 67.5z M415 1702q0 39 29 67.5t68 28.5t67.5 -28.5t28.5 -67.5q0 -37 -27 -66q-27 -31 -69 -30q-40 0 -68 30q-29 33 -29 66z" />
<glyph unicode="&#xd0;" horiz-adv-x="1597" d="M76 0v16h20q70 0 103 52q35 53 34 110v535h-157v45h157v532q0 74 -36 119q-37 47 -101 47h-20v17h567q211 0 377 -66q160 -63 270 -180q68 -72 115 -158q47 -88 68 -176q23 -96 22 -184q0 -100 -25 -193q-27 -100 -67.5 -167.5t-108.5 -139.5q-55 -57 -145 -115 q-70 -43 -164 -67q-100 -27 -248 -27h-661zM385 221q0 -63 21 -98q23 -39 55 -53q31 -14 80 -21q31 -4 127 -4q160 0 270 31q104 29 213 141q76 78 123 199q45 115 45 282q0 131 -37 260q-37 127 -113 228q-86 113 -219 178q-129 63 -321 63q-96 0 -244 -24v-645h395v-45 h-395v-492z" />
<glyph unicode="&#xd1;" horiz-adv-x="1662" d="M6 1456v17h277l1114 -1248v951q0 113 -8 159q-10 57 -46 86q-39 33 -114 35v17h370v-17q-51 -6 -88 -22q-35 -16 -51 -56q-18 -43 -18 -123v-1292h-10l-1131 1262v-906q0 -119 8 -167q10 -57 27 -80q37 -52 129 -56v-16h-369v16q63 4 97 27q34 25 49 86q14 57 14 188v961 l-49 55q-68 78 -105 94q-45 21 -96 29zM535 1608q2 86 57 141q53 53 119 53q27 0 62 -10q66 -20 90 -29q27 -8 50 -16t38.5 -12t19.5 -6q18 -6 37 -6.5t45 14.5q25 14 41 65h37q-12 -80 -59 -137q-47 -55 -115 -55q-35 0 -80 16l-82 29q-111 39 -145.5 39t-51.5 -25 q-18 -29 -28 -61h-35z" />
<glyph unicode="&#xd2;" horiz-adv-x="1771" d="M106 741q0 162 62 303q61 143 172 250q106 104 252 164q139 57 295 58q154 0 291 -56q139 -55 249 -160q104 -98 172 -249q63 -141 64 -316q0 -205 -102.5 -385t-280.5 -284.5t-391 -104.5t-395 105q-178 102 -285 284q-103 174 -103 391zM283 737q0 -184 51 -331 q49 -141 139 -231.5t194.5 -129.5t221.5 -39q104 0 209 37q109 39 192 119q86 84 142 223q55 141 55 346q0 295 -104.5 461t-239.5 221q-139 57 -256 57q-92 0 -193 -30q-94 -29 -194 -113q-94 -78 -156 -227q-61 -148 -61 -363zM692 1939h125l197 -333h-37z" />
<glyph unicode="&#xd3;" horiz-adv-x="1771" d="M106 741q0 162 62 303q61 143 172 250q106 104 252 164q139 57 295 58q154 0 291 -56q139 -55 249 -160q104 -98 172 -249q63 -141 64 -316q0 -205 -102.5 -385t-280.5 -284.5t-391 -104.5t-395 105q-178 102 -285 284q-103 174 -103 391zM283 737q0 -184 51 -331 q49 -141 139 -231.5t194.5 -129.5t221.5 -39q104 0 209 37q109 39 192 119q86 84 142 223q55 141 55 346q0 295 -104.5 461t-239.5 221q-139 57 -256 57q-92 0 -193 -30q-94 -29 -194 -113q-94 -78 -156 -227q-61 -148 -61 -363zM797 1606l207 327h121l-287 -327h-41z" />
<glyph unicode="&#xd4;" horiz-adv-x="1771" d="M106 741q0 162 62 303q61 143 172 250q106 104 252 164q139 57 295 58q154 0 291 -56q139 -55 249 -160q104 -98 172 -249q63 -141 64 -316q0 -205 -102.5 -385t-280.5 -284.5t-391 -104.5t-395 105q-178 102 -285 284q-103 174 -103 391zM283 737q0 -184 51 -331 q49 -141 139 -231.5t194.5 -129.5t221.5 -39q104 0 209 37q109 39 192 119q86 84 142 223q55 141 55 346q0 295 -104.5 461t-239.5 221q-139 57 -256 57q-92 0 -193 -30q-94 -29 -194 -113q-94 -78 -156 -227q-61 -148 -61 -363zM586 1606l266 329h53l281 -329h-43l-262 219 l-252 -219h-43z" />
<glyph unicode="&#xd5;" horiz-adv-x="1771" d="M106 741q0 162 62 303q61 143 172 250q106 104 252 164q139 57 295 58q154 0 291 -56q139 -55 249 -160q104 -98 172 -249q63 -141 64 -316q0 -205 -102.5 -385t-280.5 -284.5t-391 -104.5t-395 105q-178 102 -285 284q-103 174 -103 391zM283 737q0 -184 51 -331 q49 -141 139 -231.5t194.5 -129.5t221.5 -39q104 0 209 37q109 39 192 119q86 84 142 223q55 141 55 346q0 295 -104.5 461t-239.5 221q-139 57 -256 57q-92 0 -193 -30q-94 -29 -194 -113q-94 -78 -156 -227q-61 -148 -61 -363zM588 1608q2 86 57 141q53 53 119 53 q27 0 62 -10q66 -20 90 -29q27 -8 50 -16t38.5 -12t19.5 -6q18 -6 37 -6.5t45 14.5q25 14 41 65h37q-12 -80 -59 -137q-47 -55 -115 -55q-35 0 -80 16l-82 29q-111 39 -145.5 39t-51.5 -25q-18 -29 -28 -61h-35z" />
<glyph unicode="&#xd6;" horiz-adv-x="1771" d="M106 741q0 162 62 303q61 143 172 250q106 104 252 164q139 57 295 58q154 0 291 -56q139 -55 249 -160q104 -98 172 -249q63 -141 64 -316q0 -205 -102.5 -385t-280.5 -284.5t-391 -104.5t-395 105q-178 102 -285 284q-103 174 -103 391zM283 737q0 -184 51 -331 q49 -141 139 -231.5t194.5 -129.5t221.5 -39q104 0 209 37q109 39 192 119q86 84 142 223q55 141 55 346q0 295 -104.5 461t-239.5 221q-139 57 -256 57q-92 0 -193 -30q-94 -29 -194 -113q-94 -78 -156 -227q-61 -148 -61 -363zM588 1702q0 39 29 67q27 27 67 27 q39 0 66 -27q29 -29 28 -67q0 -41 -26 -68q-29 -29 -68 -28.5t-67.5 29t-28.5 67.5zM991 1702q0 39 29 67.5t68 28.5t67.5 -28.5t28.5 -67.5q0 -37 -27 -66q-27 -31 -69 -30q-40 0 -68 30q-29 33 -29 66z" />
<glyph unicode="&#xd7;" horiz-adv-x="1165" d="M154 1020l94 92l340 -340l340 338l92 -90l-340 -340l340 -340l-92 -94l-340 340l-338 -336l-92 92l336 336z" />
<glyph unicode="&#xd8;" horiz-adv-x="1771" d="M109 741q0 156 63 306q59 141 170 247q113 109 246 164q139 57 297 58q90 0 184 -23t168 -59q86 -43 145 -95l2 -2l2 -2l160 181l35 -29l-162 -180q121 -113 183 -263q61 -152 61 -305q0 -211 -102 -391q-100 -178 -281 -282q-178 -104 -391 -105q-283 0 -500 178 l-160 -180l-32 29l159 180q-135 133 -192 287q-55 151 -55 286zM285 737q0 -178 37 -295q39 -123 96 -202l909 1028q-37 45 -98 92q-47 35 -113 63q-72 31 -112 37q-61 10 -119 10q-129 0 -264 -61q-137 -61 -236 -223q-100 -164 -100 -449zM446 203q80 -100 195 -150 q113 -47 248 -47q131 0 266 62q137 61 234 225q98 166 98 446q0 195 -39 305q-41 119 -92 189z" />
<glyph unicode="&#xd9;" horiz-adv-x="1597" d="M72 1456v17h463v-17q-100 -12 -129 -59t-29 -105v-721q0 -223 45 -325q49 -111 143 -174.5t219 -63.5q51 0 121 19q74 18 131 59q182 125 183 401v805q0 63 -27 108.5t-133 55.5v17h471v-17q-104 -6 -131 -57q-29 -53 -29 -105v-1116q0 -58 19 -92q16 -29 55 -47 q25 -12 84 -23v-16h-309v244l-5 4q-63 -150 -192 -217q-133 -70 -266 -70q-154 0 -283 76q-126 74 -184 184q-41 72 -53 162q-10 72 -11 176v733q0 66 -26.5 111t-126.5 53zM606 1939h125l197 -333h-37z" />
<glyph unicode="&#xda;" horiz-adv-x="1597" d="M72 1456v17h463v-17q-100 -12 -129 -59t-29 -105v-721q0 -223 45 -325q49 -111 143 -174.5t219 -63.5q51 0 121 19q74 18 131 59q182 125 183 401v805q0 63 -27 108.5t-133 55.5v17h471v-17q-104 -6 -131 -57q-29 -53 -29 -105v-1116q0 -58 19 -92q16 -29 55 -47 q25 -12 84 -23v-16h-309v244l-5 4q-63 -150 -192 -217q-133 -70 -266 -70q-154 0 -283 76q-126 74 -184 184q-41 72 -53 162q-10 72 -11 176v733q0 66 -26.5 111t-126.5 53zM711 1606l207 327h121l-287 -327h-41z" />
<glyph unicode="&#xdb;" horiz-adv-x="1597" d="M72 1456v17h463v-17q-100 -12 -129 -59t-29 -105v-721q0 -223 45 -325q49 -111 143 -174.5t219 -63.5q51 0 121 19q74 18 131 59q182 125 183 401v805q0 63 -27 108.5t-133 55.5v17h471v-17q-104 -6 -131 -57q-29 -53 -29 -105v-1116q0 -58 19 -92q16 -29 55 -47 q25 -12 84 -23v-16h-309v244l-5 4q-63 -150 -192 -217q-133 -70 -266 -70q-154 0 -283 76q-126 74 -184 184q-41 72 -53 162q-10 72 -11 176v733q0 66 -26.5 111t-126.5 53zM500 1606l266 329h53l281 -329h-43l-262 219l-252 -219h-43z" />
<glyph unicode="&#xdc;" horiz-adv-x="1597" d="M72 1456v17h463v-17q-100 -12 -129 -59t-29 -105v-721q0 -223 45 -325q49 -111 143 -174.5t219 -63.5q51 0 121 19q74 18 131 59q182 125 183 401v805q0 63 -27 108.5t-133 55.5v17h471v-17q-104 -6 -131 -57q-29 -53 -29 -105v-1116q0 -58 19 -92q16 -29 55 -47 q25 -12 84 -23v-16h-309v244l-5 4q-63 -150 -192 -217q-133 -70 -266 -70q-154 0 -283 76q-126 74 -184 184q-41 72 -53 162q-10 72 -11 176v733q0 66 -26.5 111t-126.5 53zM502 1702q0 39 29 67q27 27 67 27q39 0 66 -27q29 -29 28 -67q0 -41 -26 -68q-29 -29 -68 -28.5 t-67.5 29t-28.5 67.5zM905 1702q0 39 29 67.5t68 28.5t67.5 -28.5t28.5 -67.5q0 -37 -27 -66q-27 -31 -69 -30q-40 0 -68 30q-29 33 -29 66z" />
<glyph unicode="&#xdd;" d="M20 1456v17h523v-17q-80 -4 -103 -35q-23 -33 -22 -59q0 -33 39 -90l307 -455l272 410q61 92 62 141q0 33 -17 53q-16 18 -32 25q-25 8 -37 10v17h374v-17q-68 0 -118 -31q-53 -31 -80 -63q-43 -51 -62 -78l-344 -518v-590q0 -78 47 -119q43 -37 115 -41v-16h-467v16 q72 4 113 41q41 39 41 119v565l-375 562q-59 90 -106 120q-46 29 -130 33zM617 1606l207 327h121l-287 -327h-41z" />
<glyph unicode="&#xde;" horiz-adv-x="1107" d="M78 0v16q74 4 115 39q43 37 43 123v1114q0 88 -46 125q-45 35 -112 39v17h467v-17q-43 -4 -80 -20q-39 -18 -57 -45q-20 -29 -21 -99v-151h174q123 0 213 -33q96 -35 154 -90q61 -58 92 -129q31 -70 31 -150t-27 -147.5t-90 -124.5q-61 -55 -162 -90q-96 -33 -227 -33 q-82 0 -158 12v-178q0 -156 158 -162v-16h-467zM387 395q63 -12 150 -12q143 0 243.5 73.5t100.5 272.5q0 162 -88 268q-86 104 -265 105q-49 0 -141 -10v-697z" />
<glyph unicode="&#xdf;" horiz-adv-x="1921" d="M59 -29v369h17q37 -164 139 -246t254 -82q117 0 180 41q70 43 92 103q27 66 27 120q0 125 -76 203q-72 74 -229 160l-158 90q-49 29 -102 82q-55 55 -84 121q-31 71 -31 160q0 104 55 198q55 96 155.5 153.5t229.5 57.5q100 0 199 -33q14 -8 43 -8q33 0 45 45h16v-315 h-16q-16 111 -94 188q-80 80 -209 80q-86 0 -151.5 -41t-102.5 -108q-35 -63 -35 -158q0 -74 21 -123q23 -57 63 -94q41 -39 101 -76q53 -35 153 -90q163 -89 252 -178q90 -90 90 -242q0 -96 -49 -182q-51 -90 -145 -143q-98 -55 -244 -56q-92 0 -162 19q-57 14 -141 55 q-35 10 -41 10q-20 0 -26.5 -14t-18.5 -66h-17zM1020 -29v369h17q37 -164 139 -246t254 -82q117 0 180 41q70 43 92 103q27 66 27 120q0 125 -76 203q-72 74 -229 160l-158 90q-49 29 -102 82q-55 55 -84 121q-31 71 -31 160q0 104 55 198q55 96 155.5 153.5t229.5 57.5 q100 0 199 -33q14 -8 43 -8q33 0 45 45h16v-315h-16q-16 111 -94 188q-80 80 -209 80q-86 0 -151.5 -41t-102.5 -108q-35 -63 -35 -158q0 -74 21 -123q23 -57 63 -94q41 -39 101 -76q53 -35 153 -90q163 -89 252 -178q90 -90 90 -242q0 -96 -49 -182q-51 -90 -145 -143 q-98 -55 -244 -56q-92 0 -162 19q-57 14 -141 55q-35 10 -41 10q-20 0 -26.5 -14t-18.5 -66h-17z" />
<glyph unicode="&#xe0;" d="M25 0v16q76 6 118 56q45 51 78 151l416 1268h108l441 -1262q35 -100 65.5 -143t59.5 -55q25 -10 73 -15v-16h-481v16q78 0 115 15q39 14 39 75q0 33 -19 91l-4 12l-131 391h-510l-117 -362q-25 -74 -24 -119q0 -61 31 -82q29 -20 88 -21v-16h-346zM410 653h469l-240 699 h-4zM512 1939h125l197 -333h-37z" />
<glyph unicode="&#xe1;" d="M25 0v16q76 6 118 56q45 51 78 151l416 1268h108l441 -1262q35 -100 65.5 -143t59.5 -55q25 -10 73 -15v-16h-481v16q78 0 115 15q39 14 39 75q0 33 -19 91l-4 12l-131 391h-510l-117 -362q-25 -74 -24 -119q0 -61 31 -82q29 -20 88 -21v-16h-346zM410 653h469l-240 699 h-4zM617 1606l207 327h121l-287 -327h-41z" />
<glyph unicode="&#xe2;" d="M25 0v16q76 6 118 56q45 51 78 151l416 1268h108l441 -1262q35 -100 65.5 -143t59.5 -55q25 -10 73 -15v-16h-481v16q78 0 115 15q39 14 39 75q0 33 -19 91l-4 12l-131 391h-510l-117 -362q-25 -74 -24 -119q0 -61 31 -82q29 -20 88 -21v-16h-346zM410 653h469l-240 699 h-4zM406 1606l266 329h53l281 -329h-43l-262 219l-252 -219h-43z" />
<glyph unicode="&#xe3;" d="M25 0v16q76 6 118 56q45 51 78 151l416 1268h108l441 -1262q35 -100 65.5 -143t59.5 -55q25 -10 73 -15v-16h-481v16q78 0 115 15q39 14 39 75q0 33 -19 91l-4 12l-131 391h-510l-117 -362q-25 -74 -24 -119q0 -61 31 -82q29 -20 88 -21v-16h-346zM410 653h469l-240 699 h-4zM408 1608q2 86 57 141q53 53 119 53q27 0 62 -10q66 -20 90 -29q27 -8 50 -16t38.5 -12t19.5 -6q18 -6 37 -6.5t45 14.5q25 14 41 65h37q-12 -80 -59 -137q-47 -55 -115 -55q-35 0 -80 16l-82 29q-111 39 -145.5 39t-51.5 -25q-18 -29 -28 -61h-35z" />
<glyph unicode="&#xe4;" d="M25 0v16q76 6 118 56q45 51 78 151l416 1268h108l441 -1262q35 -100 65.5 -143t59.5 -55q25 -10 73 -15v-16h-481v16q78 0 115 15q39 14 39 75q0 33 -19 91l-4 12l-131 391h-510l-117 -362q-25 -74 -24 -119q0 -61 31 -82q29 -20 88 -21v-16h-346zM410 653h469l-240 699 h-4zM408 1702q0 39 29 67q27 27 67 27q39 0 66 -27q29 -29 28 -67q0 -41 -26 -68q-29 -29 -68 -28.5t-67.5 29t-28.5 67.5zM811 1702q0 39 29 67.5t68 28.5t67.5 -28.5t28.5 -67.5q0 -37 -27 -66q-27 -31 -69 -30q-40 0 -68 30q-29 33 -29 66z" />
<glyph unicode="&#xe5;" d="M25 0v16q76 6 118 56q45 51 78 151l416 1268h108l441 -1262q35 -100 65.5 -143t59.5 -55q25 -10 73 -15v-16h-481v16q78 0 115 15q39 14 39 75q0 33 -19 91l-4 12l-131 391h-510l-117 -362q-25 -74 -24 -119q0 -61 31 -82q29 -20 88 -21v-16h-346zM410 653h469l-240 699 h-4zM705 1966q47 0 90 -24q41 -25 66 -66q25 -43 24 -90q0 -45 -24 -88q-25 -45 -66 -68q-43 -25 -90 -24q-45 0 -88 24q-41 25 -66 66q-25 43 -24.5 90t24.5 90q23 41 64 65.5t90 24.5zM707 1907q-51 0 -86 -35t-35 -86t35 -86t86 -35t84 35q35 39 35 86t-35 86 q-33 35 -84 35z" />
<glyph unicode="&#xe6;" horiz-adv-x="1685" d="M25 0v16q66 10 104 45q43 41 78 115l645 1297h735v-218h-16q0 43 -25 84q-25 39 -63 64q-40 25 -80 24h-389v-659h289q72 0 133 30.5t61 116.5h16v-333h-16q0 80 -57 110q-59 31 -131 31h-295v-547q0 -70 30.5 -100.5t104.5 -30.5h201q78 0 127 18q55 20 86 60 q37 47 57 110h16l-49 -233h-882v16q158 4 157 160v547h-332l-217 -436l-4 -11q-57 -113 -57 -167q0 -37 18 -56q23 -23 41 -26q33 -8 60 -11v-16h-346zM549 768h313v631h-4z" />
<glyph unicode="&#xe7;" horiz-adv-x="1472" d="M106 713q0 193 94.5 379t281 305t450.5 119q119 0 221 -29q141 -45 188 -45q31 0 39 14q6 12 15 41h16l-10 -354h-17q-18 111 -100 182q-88 78 -190 111q-111 35 -203 34q-166 0 -305 -92q-137 -92 -217 -260q-78 -164 -78 -383q0 -215 76 -375q78 -164 217 -252t319 -88 q262 0 483 197v-57q-89 -74 -153 -111q-70 -41 -139 -57q-68 -16 -201 -33l-27 -39q141 -12 142 -110q0 -66 -57.5 -90.5t-119.5 -24.5q-115 0 -210 51v37q6 -2 16 -6q47 -16 88 -17q55 0 78 21q27 23 26 51q0 31 -16 43q-15 12 -37 19l45 65q-147 20 -217 41 q-90 27 -188 94q-104 74 -185 197q-45 68 -71 139q-31 80 -41 143q-13 70 -13 140z" />
<glyph unicode="&#xe8;" horiz-adv-x="1042" d="M72 0v16h20q46 0 92 37q45 37 45 125v1110q0 70 -30.5 119t-106.5 49h-20v17h878v-232h-14q0 186 -248 186h-307v-669h270q74 0 144 26q61 25 71 119h15v-334h-15q-8 55 -35 88q-23 29 -49 39.5t-43 10.5q-37 6 -75 6h-283v-523q0 -57 22 -102q22 -43 105 -43h219 q74 0 129 23q49 20 82 63q23 31 49 100h14l-51 -231h-878zM329 1939h125l197 -333h-37z" />
<glyph unicode="&#xe9;" horiz-adv-x="1042" d="M72 0v16h20q46 0 92 37q45 37 45 125v1110q0 70 -30.5 119t-106.5 49h-20v17h878v-232h-14q0 186 -248 186h-307v-669h270q74 0 144 26q61 25 71 119h15v-334h-15q-8 55 -35 88q-23 29 -49 39.5t-43 10.5q-37 6 -75 6h-283v-523q0 -57 22 -102q22 -43 105 -43h219 q74 0 129 23q49 20 82 63q23 31 49 100h14l-51 -231h-878zM434 1606l207 327h121l-287 -327h-41z" />
<glyph unicode="&#xea;" horiz-adv-x="1042" d="M72 0v16h20q46 0 92 37q45 37 45 125v1110q0 70 -30.5 119t-106.5 49h-20v17h878v-232h-14q0 186 -248 186h-307v-669h270q74 0 144 26q61 25 71 119h15v-334h-15q-8 55 -35 88q-23 29 -49 39.5t-43 10.5q-37 6 -75 6h-283v-523q0 -57 22 -102q22 -43 105 -43h219 q74 0 129 23q49 20 82 63q23 31 49 100h14l-51 -231h-878zM223 1606l266 329h53l281 -329h-43l-262 219l-252 -219h-43z" />
<glyph unicode="&#xeb;" horiz-adv-x="1042" d="M72 0v16h20q46 0 92 37q45 37 45 125v1110q0 70 -30.5 119t-106.5 49h-20v17h878v-232h-14q0 186 -248 186h-307v-669h270q74 0 144 26q61 25 71 119h15v-334h-15q-8 55 -35 88q-23 29 -49 39.5t-43 10.5q-37 6 -75 6h-283v-523q0 -57 22 -102q22 -43 105 -43h219 q74 0 129 23q49 20 82 63q23 31 49 100h14l-51 -231h-878zM246 1702q0 39 29 67q27 27 67 27q39 0 66 -27q29 -29 28 -67q0 -41 -26 -68q-29 -29 -68 -28.5t-67.5 29t-28.5 67.5zM649 1702q0 39 29 67.5t68 28.5t67.5 -28.5t28.5 -67.5q0 -37 -27 -66q-27 -31 -69 -30 q-40 0 -68 30q-29 33 -29 66z" />
<glyph unicode="&#xec;" horiz-adv-x="616" d="M76 0v16q65 0 110 37q47 37 47 125v1118q0 90 -47 125t-110 35v17h467v-17q-68 0 -113 -37t-45 -123v-1118q0 -84 49 -123q47 -39 109 -39v-16h-467zM116 1939h125l197 -333h-37z" />
<glyph unicode="&#xed;" horiz-adv-x="616" d="M76 0v16q65 0 110 37q47 37 47 125v1118q0 90 -47 125t-110 35v17h467v-17q-68 0 -113 -37t-45 -123v-1118q0 -84 49 -123q47 -39 109 -39v-16h-467zM221 1606l207 327h121l-287 -327h-41z" />
<glyph unicode="&#xee;" horiz-adv-x="616" d="M76 0v16q65 0 110 37q47 37 47 125v1118q0 90 -47 125t-110 35v17h467v-17q-68 0 -113 -37t-45 -123v-1118q0 -84 49 -123q47 -39 109 -39v-16h-467zM10 1606l266 329h53l281 -329h-43l-262 219l-252 -219h-43z" />
<glyph unicode="&#xef;" horiz-adv-x="616" d="M76 0v16q65 0 110 37q47 37 47 125v1118q0 90 -47 125t-110 35v17h467v-17q-68 0 -113 -37t-45 -123v-1118q0 -84 49 -123q47 -39 109 -39v-16h-467zM12 1702q0 39 29 67q27 27 67 27q39 0 66 -27q29 -29 28 -67q0 -41 -26 -68q-29 -29 -68 -28.5t-67.5 29t-28.5 67.5z M415 1702q0 39 29 67.5t68 28.5t67.5 -28.5t28.5 -67.5q0 -37 -27 -66q-27 -31 -69 -30q-40 0 -68 30q-29 33 -29 66z" />
<glyph unicode="&#xf0;" horiz-adv-x="1597" d="M76 0v16h20q70 0 103 52q35 53 34 110v535h-157v45h157v532q0 74 -36 119q-37 47 -101 47h-20v17h567q211 0 377 -66q160 -63 270 -180q68 -72 115 -158q47 -88 68 -176q23 -96 22 -184q0 -100 -25 -193q-27 -100 -67.5 -167.5t-108.5 -139.5q-55 -57 -145 -115 q-70 -43 -164 -67q-100 -27 -248 -27h-661zM385 221q0 -63 21 -98q23 -39 55 -53q31 -14 80 -21q31 -4 127 -4q160 0 270 31q104 29 213 141q76 78 123 199q45 115 45 282q0 131 -37 260q-37 127 -113 228q-86 113 -219 178q-129 63 -321 63q-96 0 -244 -24v-645h395v-45 h-395v-492z" />
<glyph unicode="&#xf1;" horiz-adv-x="1662" d="M6 1456v17h277l1114 -1248v951q0 113 -8 159q-10 57 -46 86q-39 33 -114 35v17h370v-17q-51 -6 -88 -22q-35 -16 -51 -56q-18 -43 -18 -123v-1292h-10l-1131 1262v-906q0 -119 8 -167q10 -57 27 -80q37 -52 129 -56v-16h-369v16q63 4 97 27q34 25 49 86q14 57 14 188v961 l-49 55q-68 78 -105 94q-45 21 -96 29zM535 1608q2 86 57 141q53 53 119 53q27 0 62 -10q66 -20 90 -29q27 -8 50 -16t38.5 -12t19.5 -6q18 -6 37 -6.5t45 14.5q25 14 41 65h37q-12 -80 -59 -137q-47 -55 -115 -55q-35 0 -80 16l-82 29q-111 39 -145.5 39t-51.5 -25 q-18 -29 -28 -61h-35z" />
<glyph unicode="&#xf2;" horiz-adv-x="1771" d="M106 741q0 162 62 303q61 143 172 250q106 104 252 164q139 57 295 58q154 0 291 -56q139 -55 249 -160q104 -98 172 -249q63 -141 64 -316q0 -205 -102.5 -385t-280.5 -284.5t-391 -104.5t-395 105q-178 102 -285 284q-103 174 -103 391zM283 737q0 -184 51 -331 q49 -141 139 -231.5t194.5 -129.5t221.5 -39q104 0 209 37q109 39 192 119q86 84 142 223q55 141 55 346q0 295 -104.5 461t-239.5 221q-139 57 -256 57q-92 0 -193 -30q-94 -29 -194 -113q-94 -78 -156 -227q-61 -148 -61 -363zM692 1939h125l197 -333h-37z" />
<glyph unicode="&#xf3;" horiz-adv-x="1771" d="M106 741q0 162 62 303q61 143 172 250q106 104 252 164q139 57 295 58q154 0 291 -56q139 -55 249 -160q104 -98 172 -249q63 -141 64 -316q0 -205 -102.5 -385t-280.5 -284.5t-391 -104.5t-395 105q-178 102 -285 284q-103 174 -103 391zM283 737q0 -184 51 -331 q49 -141 139 -231.5t194.5 -129.5t221.5 -39q104 0 209 37q109 39 192 119q86 84 142 223q55 141 55 346q0 295 -104.5 461t-239.5 221q-139 57 -256 57q-92 0 -193 -30q-94 -29 -194 -113q-94 -78 -156 -227q-61 -148 -61 -363zM797 1606l207 327h121l-287 -327h-41z" />
<glyph unicode="&#xf4;" horiz-adv-x="1771" d="M106 741q0 162 62 303q61 143 172 250q106 104 252 164q139 57 295 58q154 0 291 -56q139 -55 249 -160q104 -98 172 -249q63 -141 64 -316q0 -205 -102.5 -385t-280.5 -284.5t-391 -104.5t-395 105q-178 102 -285 284q-103 174 -103 391zM283 737q0 -184 51 -331 q49 -141 139 -231.5t194.5 -129.5t221.5 -39q104 0 209 37q109 39 192 119q86 84 142 223q55 141 55 346q0 295 -104.5 461t-239.5 221q-139 57 -256 57q-92 0 -193 -30q-94 -29 -194 -113q-94 -78 -156 -227q-61 -148 -61 -363zM586 1606l266 329h53l281 -329h-43l-262 219 l-252 -219h-43z" />
<glyph unicode="&#xf5;" horiz-adv-x="1771" d="M106 741q0 162 62 303q61 143 172 250q106 104 252 164q139 57 295 58q154 0 291 -56q139 -55 249 -160q104 -98 172 -249q63 -141 64 -316q0 -205 -102.5 -385t-280.5 -284.5t-391 -104.5t-395 105q-178 102 -285 284q-103 174 -103 391zM283 737q0 -184 51 -331 q49 -141 139 -231.5t194.5 -129.5t221.5 -39q104 0 209 37q109 39 192 119q86 84 142 223q55 141 55 346q0 295 -104.5 461t-239.5 221q-139 57 -256 57q-92 0 -193 -30q-94 -29 -194 -113q-94 -78 -156 -227q-61 -148 -61 -363zM588 1608q2 86 57 141q53 53 119 53 q27 0 62 -10q66 -20 90 -29q27 -8 50 -16t38.5 -12t19.5 -6q18 -6 37 -6.5t45 14.5q25 14 41 65h37q-12 -80 -59 -137q-47 -55 -115 -55q-35 0 -80 16l-82 29q-111 39 -145.5 39t-51.5 -25q-18 -29 -28 -61h-35z" />
<glyph unicode="&#xf6;" horiz-adv-x="1771" d="M106 741q0 162 62 303q61 143 172 250q106 104 252 164q139 57 295 58q154 0 291 -56q139 -55 249 -160q104 -98 172 -249q63 -141 64 -316q0 -205 -102.5 -385t-280.5 -284.5t-391 -104.5t-395 105q-178 102 -285 284q-103 174 -103 391zM283 737q0 -184 51 -331 q49 -141 139 -231.5t194.5 -129.5t221.5 -39q104 0 209 37q109 39 192 119q86 84 142 223q55 141 55 346q0 295 -104.5 461t-239.5 221q-139 57 -256 57q-92 0 -193 -30q-94 -29 -194 -113q-94 -78 -156 -227q-61 -148 -61 -363zM588 1702q0 39 29 67q27 27 67 27 q39 0 66 -27q29 -29 28 -67q0 -41 -26 -68q-29 -29 -68 -28.5t-67.5 29t-28.5 67.5zM991 1702q0 39 29 67.5t68 28.5t67.5 -28.5t28.5 -67.5q0 -37 -27 -66q-27 -31 -69 -30q-40 0 -68 30q-29 33 -29 66z" />
<glyph unicode="&#xf7;" horiz-adv-x="1122" d="M20 483v113h1078v-113h-1078zM434 260q0 49 33 82t82 33q31 0 57 -15q25 -14 41.5 -42.5t16.5 -57.5q0 -49 -33 -82t-82 -33q-47 0 -82 35q-33 33 -33 80zM434 819q0 49 33 82t82 33q31 0 57 -14q25 -14 41.5 -43t16.5 -58q0 -45 -35 -79.5t-80 -34.5t-80 34.5t-35 79.5z " />
<glyph unicode="&#xf8;" horiz-adv-x="1771" d="M109 741q0 156 63 306q59 141 170 247q113 109 246 164q139 57 297 58q90 0 184 -23t168 -59q86 -43 145 -95l2 -2l2 -2l160 181l35 -29l-162 -180q121 -113 183 -263q61 -152 61 -305q0 -211 -102 -391q-100 -178 -281 -282q-178 -104 -391 -105q-283 0 -500 178 l-160 -180l-32 29l159 180q-135 133 -192 287q-55 151 -55 286zM285 737q0 -178 37 -295q39 -123 96 -202l909 1028q-37 45 -98 92q-47 35 -113 63q-72 31 -112 37q-61 10 -119 10q-129 0 -264 -61q-137 -61 -236 -223q-100 -164 -100 -449zM446 203q80 -100 195 -150 q113 -47 248 -47q131 0 266 62q137 61 234 225q98 166 98 446q0 195 -39 305q-41 119 -92 189z" />
<glyph unicode="&#xf9;" horiz-adv-x="1597" d="M72 1456v17h463v-17q-100 -12 -129 -59t-29 -105v-721q0 -223 45 -325q49 -111 143 -174.5t219 -63.5q51 0 121 19q74 18 131 59q182 125 183 401v805q0 63 -27 108.5t-133 55.5v17h471v-17q-104 -6 -131 -57q-29 -53 -29 -105v-1116q0 -58 19 -92q16 -29 55 -47 q25 -12 84 -23v-16h-309v244l-5 4q-63 -150 -192 -217q-133 -70 -266 -70q-154 0 -283 76q-126 74 -184 184q-41 72 -53 162q-10 72 -11 176v733q0 66 -26.5 111t-126.5 53zM606 1939h125l197 -333h-37z" />
<glyph unicode="&#xfa;" horiz-adv-x="1597" d="M72 1456v17h463v-17q-100 -12 -129 -59t-29 -105v-721q0 -223 45 -325q49 -111 143 -174.5t219 -63.5q51 0 121 19q74 18 131 59q182 125 183 401v805q0 63 -27 108.5t-133 55.5v17h471v-17q-104 -6 -131 -57q-29 -53 -29 -105v-1116q0 -58 19 -92q16 -29 55 -47 q25 -12 84 -23v-16h-309v244l-5 4q-63 -150 -192 -217q-133 -70 -266 -70q-154 0 -283 76q-126 74 -184 184q-41 72 -53 162q-10 72 -11 176v733q0 66 -26.5 111t-126.5 53zM711 1606l207 327h121l-287 -327h-41z" />
<glyph unicode="&#xfb;" horiz-adv-x="1597" d="M72 1456v17h463v-17q-100 -12 -129 -59t-29 -105v-721q0 -223 45 -325q49 -111 143 -174.5t219 -63.5q51 0 121 19q74 18 131 59q182 125 183 401v805q0 63 -27 108.5t-133 55.5v17h471v-17q-104 -6 -131 -57q-29 -53 -29 -105v-1116q0 -58 19 -92q16 -29 55 -47 q25 -12 84 -23v-16h-309v244l-5 4q-63 -150 -192 -217q-133 -70 -266 -70q-154 0 -283 76q-126 74 -184 184q-41 72 -53 162q-10 72 -11 176v733q0 66 -26.5 111t-126.5 53zM500 1606l266 329h53l281 -329h-43l-262 219l-252 -219h-43z" />
<glyph unicode="&#xfc;" horiz-adv-x="1597" d="M72 1456v17h463v-17q-100 -12 -129 -59t-29 -105v-721q0 -223 45 -325q49 -111 143 -174.5t219 -63.5q51 0 121 19q74 18 131 59q182 125 183 401v805q0 63 -27 108.5t-133 55.5v17h471v-17q-104 -6 -131 -57q-29 -53 -29 -105v-1116q0 -58 19 -92q16 -29 55 -47 q25 -12 84 -23v-16h-309v244l-5 4q-63 -150 -192 -217q-133 -70 -266 -70q-154 0 -283 76q-126 74 -184 184q-41 72 -53 162q-10 72 -11 176v733q0 66 -26.5 111t-126.5 53zM502 1702q0 39 29 67q27 27 67 27q39 0 66 -27q29 -29 28 -67q0 -41 -26 -68q-29 -29 -68 -28.5 t-67.5 29t-28.5 67.5zM905 1702q0 39 29 67.5t68 28.5t67.5 -28.5t28.5 -67.5q0 -37 -27 -66q-27 -31 -69 -30q-40 0 -68 30q-29 33 -29 66z" />
<glyph unicode="&#xfd;" d="M20 1456v17h523v-17q-80 -4 -103 -35q-23 -33 -22 -59q0 -33 39 -90l307 -455l272 410q61 92 62 141q0 33 -17 53q-16 18 -32 25q-25 8 -37 10v17h374v-17q-68 0 -118 -31q-53 -31 -80 -63q-43 -51 -62 -78l-344 -518v-590q0 -78 47 -119q43 -37 115 -41v-16h-467v16 q72 4 113 41q41 39 41 119v565l-375 562q-59 90 -106 120q-46 29 -130 33zM617 1606l207 327h121l-287 -327h-41z" />
<glyph unicode="&#xfe;" horiz-adv-x="1107" d="M78 0v16q74 4 115 39q43 37 43 123v1114q0 88 -46 125q-45 35 -112 39v17h467v-17q-43 -4 -80 -20q-39 -18 -57 -45q-20 -29 -21 -99v-151h174q123 0 213 -33q96 -35 154 -90q61 -58 92 -129q31 -70 31 -150t-27 -147.5t-90 -124.5q-61 -55 -162 -90q-96 -33 -227 -33 q-82 0 -158 12v-178q0 -156 158 -162v-16h-467zM387 395q63 -12 150 -12q143 0 243.5 73.5t100.5 272.5q0 162 -88 268q-86 104 -265 105q-49 0 -141 -10v-697z" />
<glyph unicode="&#xff;" d="M20 1456v17h523v-17q-80 -4 -103 -35q-23 -33 -22 -59q0 -33 39 -90l307 -455l272 410q61 92 62 141q0 33 -17 53q-16 18 -32 25q-25 8 -37 10v17h374v-17q-68 0 -118 -31q-53 -31 -80 -63q-43 -51 -62 -78l-344 -518v-590q0 -78 47 -119q43 -37 115 -41v-16h-467v16 q72 4 113 41q41 39 41 119v565l-375 562q-59 90 -106 120q-46 29 -130 33zM408 1702q0 39 29 67q27 27 67 27q39 0 66 -27q29 -29 28 -67q0 -41 -26 -68q-29 -29 -68 -28.5t-67.5 29t-28.5 67.5zM811 1702q0 39 29 67.5t68 28.5t67.5 -28.5t28.5 -67.5q0 -37 -27 -66 q-27 -31 -69 -30q-40 0 -68 30q-29 33 -29 66z" />
<glyph unicode="&#x152;" horiz-adv-x="2027" d="M121 731q0 166 67.5 305.5t180 239.5t256.5 154q139 51 288 51q74 0 152 -6l117 -2h760v-220h-17q-27 174 -250 174h-305v-659h256q133 0 178 41q43 39 51 96h17v-334h-17q-12 72 -43 111q-33 41 -135 41h-307v-537q0 -35 6 -63.5t35 -52.5q28 -25 86 -25h158 q113 0 174 16q59 16 86 52q28 37 55 116h17l-45 -229h-715h-21q-23 0 -45 -2q-8 0 -26.5 -1t-24.5 -3q-25 -4 -41 -4q-70 -6 -149 -6q-217 0 -369 69q-158 74 -250 183q-92 111 -137 243q-43 129 -43 252zM297 735q0 -186 45 -309q43 -119 119 -211q68 -83 178 -135 q109 -51 276 -51q131 0 197 34q61 33 82 82q16 43 27 123v889q0 145 -66 211q-68 68 -223 68q-135 0 -250 -45q-121 -47 -203 -134q-88 -90 -135 -221q-47 -129 -47 -301z" />
<glyph unicode="&#x153;" horiz-adv-x="2027" d="M121 731q0 166 67.5 305.5t180 239.5t256.5 154q139 51 288 51q74 0 152 -6l117 -2h760v-220h-17q-27 174 -250 174h-305v-659h256q133 0 178 41q43 39 51 96h17v-334h-17q-12 72 -43 111q-33 41 -135 41h-307v-537q0 -35 6 -63.5t35 -52.5q28 -25 86 -25h158 q113 0 174 16q59 16 86 52q28 37 55 116h17l-45 -229h-715h-21q-23 0 -45 -2q-8 0 -26.5 -1t-24.5 -3q-25 -4 -41 -4q-70 -6 -149 -6q-217 0 -369 69q-158 74 -250 183q-92 111 -137 243q-43 129 -43 252zM297 735q0 -186 45 -309q43 -119 119 -211q68 -83 178 -135 q109 -51 276 -51q131 0 197 34q61 33 82 82q16 43 27 123v889q0 145 -66 211q-68 68 -223 68q-135 0 -250 -45q-121 -47 -203 -134q-88 -90 -135 -221q-47 -129 -47 -301z" />
<glyph unicode="&#x178;" d="M20 1456v17h523v-17q-80 -4 -103 -35q-23 -33 -22 -59q0 -33 39 -90l307 -455l272 410q61 92 62 141q0 33 -17 53q-16 18 -32 25q-25 8 -37 10v17h374v-17q-68 0 -118 -31q-53 -31 -80 -63q-43 -51 -62 -78l-344 -518v-590q0 -78 47 -119q43 -37 115 -41v-16h-467v16 q72 4 113 41q41 39 41 119v565l-375 562q-59 90 -106 120q-46 29 -130 33zM408 1702q0 39 29 67q27 27 67 27q39 0 66 -27q29 -29 28 -67q0 -41 -26 -68q-29 -29 -68 -28.5t-67.5 29t-28.5 67.5zM811 1702q0 39 29 67.5t68 28.5t67.5 -28.5t28.5 -67.5q0 -37 -27 -66 q-27 -31 -69 -30q-40 0 -68 30q-29 33 -29 66z" />
<glyph unicode="&#x2c6;" horiz-adv-x="681" d="M41 1606l266 329h53l281 -329h-43l-262 219l-252 -219h-43z" />
<glyph unicode="&#x2da;" horiz-adv-x="681" d="M340 1966q47 0 90 -24q41 -25 66 -66q25 -43 24 -90q0 -45 -24 -88q-25 -45 -66 -68q-43 -25 -90 -24q-45 0 -88 24q-41 25 -66 66q-25 43 -24.5 90t24.5 90q23 41 64 65.5t90 24.5zM342 1907q-51 0 -86 -35t-35 -86t35 -86t86 -35t84 35q35 39 35 86t-35 86 q-33 35 -84 35z" />
<glyph unicode="&#x2dc;" horiz-adv-x="681" d="M43 1608q2 86 57 141q53 53 119 53q27 0 62 -10q66 -20 90 -29q27 -8 50 -16t38.5 -12t19.5 -6q18 -6 37 -6.5t45 14.5q25 14 41 65h37q-12 -80 -59 -137q-47 -55 -115 -55q-35 0 -80 16l-82 29q-111 39 -145.5 39t-51.5 -25q-18 -29 -28 -61h-35z" />
<glyph unicode="&#x2000;" horiz-adv-x="980" />
<glyph unicode="&#x2001;" horiz-adv-x="1964" />
<glyph unicode="&#x2002;" horiz-adv-x="980" />
<glyph unicode="&#x2003;" horiz-adv-x="1964" />
<glyph unicode="&#x2004;" horiz-adv-x="653" />
<glyph unicode="&#x2005;" horiz-adv-x="489" />
<glyph unicode="&#x2006;" horiz-adv-x="325" />
<glyph unicode="&#x2007;" horiz-adv-x="325" />
<glyph unicode="&#x2008;" horiz-adv-x="243" />
<glyph unicode="&#x2009;" horiz-adv-x="391" />
<glyph unicode="&#x200a;" horiz-adv-x="108" />
<glyph unicode="&#x2010;" horiz-adv-x="638" d="M55 690v82h529v-82h-529z" />
<glyph unicode="&#x2011;" horiz-adv-x="638" d="M55 690v82h529v-82h-529z" />
<glyph unicode="&#x2013;" horiz-adv-x="1024" d="M-12 698v66h1048v-66h-1048z" />
<glyph unicode="&#x2014;" horiz-adv-x="2048" d="M-12 698v66h2072v-66h-2072z" />
<glyph unicode="&#x2018;" horiz-adv-x="296" d="M39 1229q0 92 47 166q49 77 147 123v-15q-53 -37 -86 -100q-31 -61 -30 -117q0 -63 22 -63l13 4q10 2 20 2q22 0 43 -12q16 -10 33 -37q12 -22 12 -43q0 -31 -27 -62q-25 -27 -63 -26q-49 0 -90 47t-41 133z" />
<glyph unicode="&#x2019;" horiz-adv-x="296" d="M39 1432q0 43 26.5 63.5t63.5 20.5q33 0 66 -23q27 -18 47 -63q18 -41 18 -91q0 -94 -53 -174q-55 -84 -146 -116v14q61 41 90 104.5t29 114.5q0 59 -20 59h-51q-33 6 -51.5 31t-18.5 60z" />
<glyph unicode="&#x201a;" horiz-adv-x="296" d="M39 82q0 39 29 63q31 27 65 27q29 0 62 -22q27 -18 47 -64q18 -41 18 -88q0 -102 -51 -174q-55 -78 -148 -121v12l33 29q33 29 58 82q27 57 26 119q0 55 -16 55q-4 -2 -15 -4l-16 -4q-37 0 -65 24q-27 25 -27 66z" />
<glyph unicode="&#x201c;" horiz-adv-x="573" d="M39 1229q0 92 47 166q49 77 147 123v-15q-53 -37 -86 -100q-31 -61 -30 -117q0 -63 22 -63l13 4q10 2 20 2q22 0 43 -12q16 -10 33 -37q12 -22 12 -43q0 -31 -27 -62q-25 -27 -63 -26q-49 0 -90 47t-41 133zM315 1229q0 90 50 166q49 77 147 123v-15q-53 -35 -86 -98 q-31 -61 -31 -119q0 -63 23 -63l12 4q10 2 19 2q37 0 63.5 -26.5t26.5 -65.5q0 -33 -27 -60q-29 -29 -66 -28q-49 0 -90 47t-41 133z" />
<glyph unicode="&#x201d;" horiz-adv-x="573" d="M41 1432q0 43 26.5 63.5t63.5 20.5q33 0 66 -23q27 -18 47 -63q18 -41 18 -91q0 -94 -53 -174q-55 -84 -146 -116v14q61 41 90 104.5t29 114.5q0 59 -20 59h-51q-33 6 -51.5 31t-18.5 60zM317 1432q0 43 27 63.5t64 20.5q59 0 96 -49.5t37 -127.5q0 -94 -54 -174 q-55 -84 -145 -116v14q66 45 90 104q27 61 27 115q0 59 -21 59h-30h-21q-33 6 -51.5 31t-18.5 60z" />
<glyph unicode="&#x201e;" horiz-adv-x="573" d="M37 84q0 43 26.5 63.5t63.5 20.5q33 0 66 -23q29 -18 47 -61q18 -40 18 -92q0 -94 -53 -174q-55 -84 -146 -117v14q61 37 91 103q29 63 28 116q0 59 -20 60h-31h-21q-35 6 -51 31q-18 28 -18 59zM313 84q0 43 27 63.5t63 20.5q35 0 68 -23q29 -20 49 -63q16 -35 17 -90 q0 -94 -54 -174q-55 -84 -145 -117v14q66 45 90 105q27 61 27 114q0 59 -21 60h-31h-20q-33 6 -51.5 30.5t-18.5 59.5z" />
<glyph unicode="&#x2022;" horiz-adv-x="573" d="M59 674q0 63 31 114q31 53 84 84q51 31 114.5 31t114.5 -31q53 -31 84 -84q31 -51 31 -114.5t-31 -114.5q-29 -49 -84 -82q-51 -31 -114.5 -31t-114.5 31q-55 33 -84 82q-31 52 -31 115z" />
<glyph unicode="&#x2026;" horiz-adv-x="2048" d="M250 49q0 37 29 62q31 27 63 26q37 0 63.5 -26.5t26.5 -63.5t-26 -61q-29 -25 -64 -25q-39 0 -65.5 24.5t-26.5 63.5zM932 49q0 37 29 62q31 27 63 26q37 0 63.5 -26.5t26.5 -63.5t-26.5 -61.5t-63.5 -24.5t-63 25q-29 24 -29 63zM1616 49q0 37 26 62q31 27 64 26 q39 0 65.5 -26.5t26.5 -63.5t-26.5 -61.5t-65.5 -24.5q-33 0 -64 27q-26 24 -26 61z" />
<glyph unicode="&#x202f;" horiz-adv-x="391" />
<glyph unicode="&#x2039;" horiz-adv-x="405" d="M23 727l331 498h25l-207 -498l207 -498h-25z" />
<glyph unicode="&#x203a;" horiz-adv-x="405" d="M27 229l206 498l-206 498h24l332 -498l-332 -498h-24z" />
<glyph unicode="&#x205f;" horiz-adv-x="489" />
<glyph unicode="&#x2122;" horiz-adv-x="1853" d="M41 1284v189h674v-189h-25q-12 86 -41 111q-33 29 -117 28h-92v-565q0 -80 9 -110q8 -33 34 -43q29 -10 74 -9v-32h-356v32q43 -2 71 9q27 10 35 43q10 37 10 110v565h-92q-47 0 -82 -10q-31 -9 -49 -37q-20 -31 -26 -92h-27zM786 664v32q53 0 80 11q23 8 29 36 q6 27 6 95v458q0 61 -6 86q-6 27 -29 39q-22 12 -80 19v33h238l295 -635l287 635h227v-33q-57 -4 -76 -10q-25 -8 -31 -35q-8 -33 -8 -84v-473q0 -90 19 -115q20 -27 96 -27v-32h-346v32q51 0 78 11q25 8 32 38q8 27 9 93v514h-4l-308 -688h-16l-317 675h-5v-508 q0 -76 5 -92q6 -25 28 -34q18 -8 84 -9v-32h-287z" />
</font>
</defs>
</svg>
